<svg width="5414" height="4512" viewBox="0 0 5414 4512" fill="none" xmlns="http://www.w3.org/2000/svg">
<g clip-path="url(#clip0_5_52)">
<path opacity="0.3" d="M4987.13 1128.64C4805.4 731.129 4431.25 670.781 3645.29 802.581C2859.34 934.39 2496.46 834.747 2033.87 597.506C1571.28 360.265 944.73 179.785 696.698 679.692C407.929 1261.7 1159.46 1755.79 1405.12 2849.66C1534.98 3427.94 1644.2 3835.63 2052.71 3945.47C2538.96 4076.22 2902.27 3680.45 3298.13 3119.35C3694 2558.26 4090.65 2434.02 4526.3 2189.08C4961.94 1944.13 5168.85 1526.15 4987.13 1128.64Z" fill="url(#paint0_linear_5_52)"/>
<path opacity="0.3" d="M4849.1 501.811C4560.71 262.348 4066.86 267.002 3307.98 643.718C2549.09 1020.43 2208.33 918.034 1658.7 821.096C1109.07 724.149 436.05 704.384 346.46 1287.19C242.152 1965.72 1170.62 2233.19 1779.07 3264.42C2100.72 3809.57 2345.51 4188.43 2798.27 4173.15C3337.21 4154.97 3610.27 3711.13 3830.69 3020.63C4051.11 2330.12 4383.47 2012.33 4747.89 1629.52C5112.32 1246.71 5210.19 801.638 4849.1 501.811Z" fill="url(#paint1_linear_5_52)"/>
<path opacity="0.3" d="M4226.88 525.039C3915.27 265.475 3517.03 312.817 2884.75 674.58C2284.5 1018.01 2032.58 1125.81 1522.99 1176.52C1046.25 1223.97 498.553 1313.81 496.292 1826.23C493.653 2422.83 1315.71 2540.3 1962.8 3353.88C2304.88 3783.98 2582.94 4027.33 2965.38 3959.22C3420.58 3878.14 3538.17 3460.29 3637.87 2839.3C3737.56 2218.31 4015.2 1960.21 4276.09 1586.54C4536.99 1212.86 4538.49 784.612 4226.88 525.039Z" fill="url(#paint2_linear_5_52)"/>
<g opacity="0.2">
<path d="M5529.16 2892.17C5529.16 2979.58 4367.49 3050.45 2934.48 3050.45C1501.48 3050.45 339.804 2979.58 339.804 2892.17C339.804 2804.76 1501.48 2625.56 2934.48 2625.56C4367.49 2625.56 5529.16 2804.76 5529.16 2892.17Z" fill="#315B8A"/>
</g>
<path d="M3012.67 1242.08L3235.16 1521.47L3069.07 1516.78L3012.67 1242.08Z" fill="#AF873A"/>
<path d="M3069.09 1516.78H2813.78V1265.85L2829.13 1264.01L3012.67 1242.1L3069.09 1516.78Z" fill="#FCCA6C"/>
<path d="M2921.16 1442.73H2975.41V1478.65H2889.99V1284.91H2921.16V1442.73Z" fill="white"/>
<path opacity="0.25" d="M3069.09 1516.78H2813.78V1265.85L2829.13 1264.01L2868.42 1481.69L3069.09 1516.78Z" fill="white"/>
<path d="M5208.87 2157.76V2465.66L5079.29 2618.9L4664.31 2665.4L4606.09 2671.93L4574.32 2675.48L4517.03 2681.89L4483.85 2685.61H991.291L864.229 2673.28L799.127 2666.96H799.075L350.057 2623.43L251.261 2545.6V2194.85C251.261 2171.85 264.914 2151.09 285.968 2141.92C327.423 2123.91 405.233 2092.41 514.83 2057.9C546.806 2047.81 581.461 2037.49 618.743 2027.17C695.128 2006.03 782.435 1984.88 879.702 1965.99C894.23 1963.17 908.981 1960.4 923.956 1957.69C1116.94 1922.64 1346.34 1897.16 1605.24 1897.16V1942.18C1684.11 1944.9 1775.78 1948.02 1877.22 1951.51C2042.61 1957.18 2234.04 1963.74 2438.64 1970.71C3491.02 2006.72 4891.91 2054.58 4891.91 2054.58L5002.9 2157.76H5208.87Z" fill="#548FCC"/>
<g opacity="0.5">
<path d="M4606.09 2671.93L4574.32 2675.48L4517.03 2681.89L4483.85 2685.61H991.291L864.229 2673.28L799.127 2666.96H799.075L350.057 2623.43L251.261 2545.6V2542.72L4540.87 2428.73L4606.09 2671.93Z" fill="#28537F"/>
</g>
<path d="M1677.59 2604.37C1677.59 2632.21 1674.82 2659.37 1669.5 2685.63H991.291L864.246 2673.3C860.416 2650.87 858.441 2627.86 858.441 2604.37C858.441 2378.17 1041.81 2194.8 1268.01 2194.8C1494.2 2194.8 1677.59 2378.17 1677.59 2604.37Z" fill="#28537F"/>
<path d="M1635.67 2604.37C1635.67 2807.42 1471.05 2972.02 1268 2972.02C1064.95 2972.02 900.343 2807.42 900.343 2604.37C900.343 2401.32 1064.95 2236.72 1268 2236.72C1471.05 2236.72 1635.67 2401.32 1635.67 2604.37Z" fill="#333333"/>
<path d="M1560.98 2604.37C1560.98 2766.19 1429.82 2897.35 1268 2897.35C1106.19 2897.35 975.011 2766.19 975.011 2604.37C975.011 2442.55 1106.19 2311.38 1268 2311.38C1429.82 2311.38 1560.98 2442.55 1560.98 2604.37Z" fill="#314151"/>
<g opacity="0.5">
<path d="M1561 2604.35C1561 2766.19 1429.8 2897.36 1268.01 2897.36C1178.92 2897.36 1099.14 2857.62 1045.4 2794.89C1095.2 2833.94 1157.92 2857.22 1226.13 2857.22C1387.93 2857.22 1519.1 2726.06 1519.1 2564.22C1519.1 2491.51 1492.58 2424.96 1448.69 2373.76C1517.07 2427.37 1561 2510.74 1561 2604.35Z" fill="#28537F"/>
</g>
<path fill-rule="evenodd" clip-rule="evenodd" d="M1244.06 2529.99H1212.87L1190.03 2359.33H1266.9L1244.06 2529.99ZM1215.5 2526.99H1241.43L1263.46 2362.35H1193.47L1215.5 2526.99Z" fill="white"/>
<path fill-rule="evenodd" clip-rule="evenodd" d="M1171.57 2560.01L1034.76 2455.5L1089.11 2401.15L1193.64 2537.96L1171.57 2560.01ZM1039.31 2455.19L1171.3 2556.01L1189.64 2537.69L1088.8 2405.7L1039.31 2455.19Z" fill="white"/>
<path fill-rule="evenodd" clip-rule="evenodd" d="M992.956 2633.29V2556.41L1163.6 2579.25V2610.45L992.956 2633.29ZM995.961 2559.86V2629.84L1160.6 2607.8V2581.89L995.961 2559.86Z" fill="white"/>
<path fill-rule="evenodd" clip-rule="evenodd" d="M1089.11 2788.55L1034.76 2734.2L1171.57 2629.68L1193.64 2651.73L1089.11 2788.55ZM1039.31 2734.51L1088.8 2784L1189.64 2652.01L1171.3 2633.67L1039.31 2734.51Z" fill="white"/>
<path fill-rule="evenodd" clip-rule="evenodd" d="M1266.9 2830.36H1190.03L1212.87 2659.7H1244.06L1266.9 2830.36ZM1193.47 2827.36H1263.46L1241.43 2662.72H1215.5L1193.47 2827.36Z" fill="white"/>
<path fill-rule="evenodd" clip-rule="evenodd" d="M1367.82 2788.55L1263.29 2651.73L1285.36 2629.68L1422.17 2734.2L1367.82 2788.55ZM1267.29 2652.01L1368.11 2784L1417.61 2734.51L1285.62 2633.67L1267.29 2652.01Z" fill="white"/>
<path fill-rule="evenodd" clip-rule="evenodd" d="M1463.97 2633.29L1293.33 2610.45V2579.25L1463.97 2556.41V2633.29ZM1296.33 2607.82L1460.97 2629.85V2559.86L1296.33 2581.89V2607.82Z" fill="white"/>
<path fill-rule="evenodd" clip-rule="evenodd" d="M1285.36 2560.01L1263.29 2537.96L1367.82 2401.15L1422.17 2455.5L1285.36 2560.01ZM1267.29 2537.69L1285.62 2556.01L1417.61 2455.19L1368.11 2405.7L1267.29 2537.69Z" fill="white"/>
<path fill-rule="evenodd" clip-rule="evenodd" d="M1228.46 2624.38C1212.18 2624.38 1198.93 2611.14 1198.93 2594.86C1198.93 2578.56 1212.18 2565.32 1228.46 2565.32C1244.74 2565.32 1258 2578.56 1258 2594.86C1258 2611.14 1244.74 2624.38 1228.46 2624.38ZM1228.46 2568.32C1213.83 2568.32 1201.93 2580.22 1201.93 2594.86C1201.93 2609.47 1213.83 2621.37 1228.46 2621.37C1243.1 2621.37 1255 2609.47 1255 2594.86C1255 2580.22 1243.1 2568.32 1228.46 2568.32Z" fill="white"/>
<path d="M4524.59 2604.37C4524.59 2630.9 4522.01 2656.82 4517.05 2681.91L4483.85 2685.63H3734.1C3728.69 2659.39 3725.84 2632.21 3725.84 2604.37C3725.84 2383.78 3904.66 2205 4125.22 2205C4345.8 2205 4524.59 2383.78 4524.59 2604.37Z" fill="#28537F"/>
<path d="M4492.89 2604.37C4492.89 2807.42 4328.28 2972.02 4125.23 2972.02C3922.16 2972.02 3757.56 2807.42 3757.56 2604.37C3757.56 2401.32 3922.16 2236.72 4125.23 2236.72C4328.28 2236.72 4492.89 2401.32 4492.89 2604.37Z" fill="#333333"/>
<path d="M4418.22 2604.37C4418.22 2766.19 4287.03 2897.35 4125.23 2897.35C3963.41 2897.35 3832.23 2766.19 3832.23 2604.37C3832.23 2442.55 3963.41 2311.38 4125.23 2311.38C4287.03 2311.38 4418.22 2442.55 4418.22 2604.37Z" fill="#314151"/>
<path fill-rule="evenodd" clip-rule="evenodd" d="M4115.87 2524.65H4085.44L4063.22 2358.51H4138.11L4115.87 2524.65ZM4088.09 2521.63H4113.25L4134.68 2361.49H4066.66L4088.09 2521.63Z" fill="white"/>
<path fill-rule="evenodd" clip-rule="evenodd" d="M4045.29 2553.88L3912.08 2452.12L3965.04 2399.15L4066.81 2532.38L4045.29 2553.88ZM3916.65 2451.81L4045.04 2549.88L4062.83 2532.09L3964.75 2403.7L3916.65 2451.81Z" fill="white"/>
<path fill-rule="evenodd" clip-rule="evenodd" d="M3871.43 2625.18V2550.29L4037.58 2572.51V2602.94L3871.43 2625.18ZM3874.44 2553.73V2621.75L4034.59 2600.32V2575.16L3874.44 2553.73Z" fill="white"/>
<path fill-rule="evenodd" clip-rule="evenodd" d="M3965.04 2776.3L3912.08 2723.34L4045.29 2621.58L4066.81 2643.09L3965.04 2776.3ZM3916.65 2723.65L3964.75 2771.75L4062.83 2643.35L4045.04 2625.56L3916.65 2723.65Z" fill="white"/>
<path fill-rule="evenodd" clip-rule="evenodd" d="M4138.11 2816.97H4063.22L4085.44 2650.81H4115.87L4138.11 2816.97ZM4066.66 2813.96H4134.68L4113.25 2653.83H4088.09L4066.66 2813.96Z" fill="white"/>
<path fill-rule="evenodd" clip-rule="evenodd" d="M4236.27 2776.3L4134.51 2643.09L4156.02 2621.58L4289.23 2723.34L4236.27 2776.3ZM4138.51 2643.35L4236.58 2771.75L4284.68 2723.65L4156.3 2625.56L4138.51 2643.35Z" fill="white"/>
<path fill-rule="evenodd" clip-rule="evenodd" d="M4329.9 2625.18L4163.73 2602.94V2572.51L4329.9 2550.29V2625.18ZM4166.76 2600.3L4326.89 2621.73V2553.71L4166.76 2575.14V2600.3Z" fill="white"/>
<path fill-rule="evenodd" clip-rule="evenodd" d="M4156.02 2553.88L4134.51 2532.38L4236.27 2399.15L4289.23 2452.12L4156.02 2553.88ZM4138.51 2532.11L4156.3 2549.9L4284.68 2451.82L4236.58 2403.72L4138.51 2532.11Z" fill="white"/>
<path fill-rule="evenodd" clip-rule="evenodd" d="M4100.66 2616.51C4084.79 2616.51 4071.88 2603.61 4071.88 2587.73C4071.88 2571.86 4084.79 2558.95 4100.66 2558.95C4116.54 2558.95 4129.44 2571.86 4129.44 2587.73C4129.44 2603.61 4116.54 2616.51 4100.66 2616.51ZM4100.66 2561.95C4086.46 2561.95 4074.88 2573.53 4074.88 2587.73C4074.88 2601.95 4086.46 2613.51 4100.66 2613.51C4114.88 2613.51 4126.43 2601.95 4126.43 2587.73C4126.43 2573.53 4114.88 2561.95 4100.66 2561.95Z" fill="white"/>
<path fill-rule="evenodd" clip-rule="evenodd" d="M5208.87 2157.74C5145.45 2157.74 1605.24 2157.74 1605.24 2157.74V1897.14C1605.39 1897.05 1605.55 1896.96 1605.72 1896.88C1617.72 1889.86 1854.76 1752.56 2153.69 1643.93C2305.17 1588.84 2472.55 1541.15 2634.63 1521.47C2685.55 1515.28 2735.91 1511.88 2785.13 1511.88C2794.76 1511.87 2804.31 1511.88 2813.78 1511.9C2898.44 1512.09 2978.15 1512.98 3054.49 1514.22C3059.2 1514.32 3063.91 1514.4 3068.6 1514.46C3100.09 1515.01 3131.04 1515.61 3161.47 1516.25C3165.71 1516.3 3169.93 1516.38 3174.13 1516.49C3193.66 1516.88 3213.01 1517.28 3232.18 1517.71C3246.84 1518.03 3261.42 1518.34 3275.91 1518.65C3285.97 1518.87 3295.97 1519.09 3305.93 1519.3C3313.99 1519.46 3322.02 1519.62 3330.01 1519.78C3351.93 1520.26 3373.73 1520.72 3395.39 1521.14C3402.19 1521.28 3408.98 1521.41 3415.75 1521.54C3480.1 1522.74 3543.69 1523.65 3607.71 1523.94C3612.71 1524.01 3617.67 1524.01 3622.67 1524.03C3631.8 1524.06 3640.95 1524.08 3650.11 1524.09H3655.64C3659.52 1524.09 3667.44 1524.61 3667.52 1524.63C3670.42 1524.63 3673.37 1524.7 3676.37 1524.85C3677.1 1524.87 3677.85 1524.91 3678.6 1524.97C3682.54 1525.15 3686.58 1525.47 3690.72 1525.93C3721.81 1529.09 3758.83 1538.19 3799.84 1551.62C3809.58 1554.81 3819.55 1558.23 3829.74 1561.91C3831.35 1562.48 3832.98 1563.07 3834.62 1563.68C3838.79 1565.21 3843.02 1566.78 3847.29 1568.38C3852.2 1570.23 3857.15 1572.13 3862.14 1574.1C3865.9 1575.54 3869.67 1577.02 3873.46 1578.52C3874.47 1578.93 3875.48 1579.33 3876.5 1579.72C3878.68 1580.61 3880.87 1581.49 3883.09 1582.36C3937.84 1604.6 3996.54 1631.7 4055.63 1660.91C4268.99 1766.52 4487.65 1899.97 4545.71 1931.62C4547.29 1932.48 4548.92 1933.35 4550.59 1934.22C4581.51 1950.19 4624.82 1964.66 4673.44 1977.51C4772.75 2003.77 4894.09 2023.21 4976.61 2034.73C5052.94 2045.38 5124.97 2076.99 5183.71 2126.81C5189.91 2132.05 5195.34 2137.01 5199.48 2141.37C5205.2 2147.37 5208.67 2152.29 5208.8 2155.64C5208.86 2156.34 5208.88 2157.04 5208.87 2157.74ZM2085.15 1882.1C2083.76 1820 2065.42 1759.6 2031.57 1759.6C2000.2 1759.6 1982.15 1811.55 1978.59 1868.62C1983.71 1872.36 1988.09 1876.93 1991.59 1882.1H2002.08C2003.48 1820.84 2021.58 1783.66 2031.57 1783.66C2041.58 1783.66 2059.7 1820.84 2061.07 1882.1H2085.15Z" fill="#548FCC"/>
<path d="M3723.78 1897.16H2910.63L2829.13 1562.53C2829.13 1562.53 3427.29 1557.51 3649.53 1592.41L3723.78 1897.16Z" fill="#28537F"/>
<path d="M4673.44 1977.51L2438.64 1970.71L1605.24 1968.18L879.702 1965.99C894.23 1963.17 908.981 1960.4 923.956 1957.69L1605.24 1953.26L1877.22 1951.51L4550.57 1934.22C4581.5 1950.19 4624.82 1964.66 4673.44 1977.51Z" fill="white"/>
<path d="M2922.45 1882.11L2848.24 1577.45C2861.88 1577.38 2882.31 1577.31 2907.81 1577.31C3069.7 1577.31 3460.13 1580.13 3637.3 1605.77L3704.63 1882.11H2922.45Z" fill="#BBD2EB"/>
<path opacity="0.5" d="M3704.65 1882.11H2922.45L2918.58 1866.35L2909.41 1828.62L2848.24 1577.43C2861.88 1577.38 2882.31 1577.31 2907.81 1577.31C2983.8 1577.31 3110.23 1577.91 3241.31 1581.26C3266.16 1581.86 3291.16 1582.62 3316.01 1583.43C3323.59 1583.67 3331.14 1583.94 3338.66 1584.23C3360.63 1585.02 3382.39 1585.92 3403.73 1586.91C3494.47 1591.14 3577.9 1597.18 3637.32 1605.79L3685.21 1802.38L3700.81 1866.35L3704.65 1882.11Z" fill="white"/>
<path d="M4380.94 1897.16H3806.26L3731.48 1604.62C3953.61 1644.99 4044.5 1716.17 4190.95 1790.57C4307.47 1849.73 4380.94 1897.16 4380.94 1897.16Z" fill="#28537F"/>
<path d="M3817.96 1882.11L3751.93 1623.82C3910.28 1655.41 3997.29 1703 4097.34 1757.71C4124.84 1772.76 4153.28 1788.3 4184.14 1803.98C4245.05 1834.91 4294.35 1862.76 4327.27 1882.11H3817.96Z" fill="#BBD2EB"/>
<path opacity="0.5" d="M4327.29 1882.11H3817.94L3813.92 1866.35L3796.6 1798.62L3751.91 1623.83C3910.28 1655.42 3997.28 1703.02 4097.34 1757.71C4107.8 1763.44 4118.41 1769.23 4129.2 1775.08C4136.27 1778.92 4143.47 1782.78 4150.79 1786.65C4161.6 1792.4 4172.72 1798.17 4184.14 1803.98C4245.03 1834.91 4294.35 1862.76 4327.29 1882.11Z" fill="white"/>
<path fill-rule="evenodd" clip-rule="evenodd" d="M2848.26 2658.24H1744.23C1742.57 2658.24 1741.21 2656.88 1741.21 2655.22V2564.97L1586.09 2312.96C1585.8 2312.48 1585.65 2311.96 1585.64 2311.38V1956.95C1585.64 1956.01 1586.11 1955.1 1586.88 1954.53C1586.88 1954.53 1588.6 1953.26 1591.96 1950.86C1594.76 1948.89 1598.61 1946.2 1603.52 1942.79L1607.81 1939.85C1663.28 1901.78 1814.39 1803.55 2018.76 1713.96C2277.5 1600.55 2523.35 1543.05 2749.48 1543.05H2765.45C2766.86 1543.05 2768.06 1544 2768.39 1545.35L2851.18 1895.73C2851.24 1895.96 2851.26 1896.19 2851.26 1896.42V2655.22C2851.26 2656.88 2849.91 2658.24 2848.26 2658.24ZM1747.24 2652.21H2845.25V1896.78L2763.08 1549.06H2749.48C2214.92 1549.06 1707.5 1878.73 1611.21 1944.81L1606.94 1947.73C1602.05 1951.13 1598.22 1953.81 1595.45 1955.77C1593.77 1956.97 1592.51 1957.87 1591.67 1958.48V2310.52L1746.79 2562.55C1747.09 2563.03 1747.24 2563.56 1747.24 2564.13V2652.21ZM2085.15 1885.1H2061.09C2059.44 1885.1 2058.12 1883.8 2058.07 1882.17C2056.66 1819.5 2037.82 1786.67 2031.57 1786.67C2025.32 1786.67 2006.52 1819.5 2005.09 1882.17C2005.06 1883.8 2003.72 1885.1 2002.08 1885.1H1991.59C1990.58 1885.1 1989.65 1884.6 1989.08 1883.78C1985.77 1878.85 1981.63 1874.56 1976.82 1871.05C1975.98 1870.44 1975.52 1869.46 1975.59 1868.43C1978.8 1816.84 1995.39 1756.58 2031.57 1756.58C2068.73 1756.58 2086.76 1819.59 2088.16 1882.03C2088.17 1882.83 2087.86 1883.62 2087.3 1884.19C2086.73 1884.78 2085.96 1885.1 2085.15 1885.1ZM2064.01 1879.09H2082.06C2080.2 1820.69 2062.48 1762.59 2031.57 1762.59C2001.91 1762.59 1985.22 1814.86 1981.7 1867.19C1986.08 1870.59 1989.93 1874.57 1993.15 1879.09H1999.17C2000.97 1822.54 2017.56 1780.64 2031.57 1780.64C2045.6 1780.64 2062.21 1822.54 2064.01 1879.09Z" fill="#28537F"/>
<path fill-rule="evenodd" clip-rule="evenodd" d="M3668.06 2658.22H2885.16C2883.5 2658.22 2882.14 2656.87 2882.14 2655.22V1897.55L2791.52 1546.8C2791.3 1545.9 2791.49 1544.96 2792.05 1544.22C2792.6 1543.48 2793.48 1543.05 2794.41 1543.04C2801.33 1542.95 3489.99 1534.24 3665.48 1574.63C3666.68 1574.91 3667.56 1575.89 3667.76 1577.06C3669.28 1583.89 3753.97 1915.93 3754.83 1919.29C3754.85 1919.36 3754.87 1919.44 3754.88 1919.52L3815.06 2256.65C3815.17 2257.27 3815.1 2257.87 3814.83 2258.44L3671.06 2574.4V2655.22C3671.06 2656.87 3669.72 2658.22 3668.06 2658.22ZM2888.17 2652.21H3665.05V2573.75C3665.05 2573.32 3665.14 2572.9 3665.31 2572.5L3808.98 2256.79L3748.98 1920.68C3678.07 1642.69 3664.83 1590.26 3662.36 1580.09C3491.67 1541.89 2854.01 1548.36 2798.3 1549.01L2888.07 1896.4C2888.13 1896.65 2888.17 1896.91 2888.17 1897.16V2652.21Z" fill="#28537F"/>
<path d="M3688.9 2054.6H3513.16L3540.33 2000.31H3716.07L3688.9 2054.6Z" fill="#28537F"/>
<path fill-rule="evenodd" clip-rule="evenodd" d="M3634.83 2042.22H3529.54L3546.8 2007.73H3652.09L3634.83 2042.22ZM3534.42 2039.19H3632.96L3647.21 2010.74H3548.65L3534.42 2039.19Z" fill="white"/>
<path d="M2767.27 2054.6H2591.53L2618.69 2000.31H2794.44L2767.27 2054.6Z" fill="#28537F"/>
<path fill-rule="evenodd" clip-rule="evenodd" d="M2713.18 2042.22H2607.89L2625.15 2007.73H2730.44L2713.18 2042.22ZM2612.77 2039.19H2711.32L2725.56 2010.74H2627.02L2612.77 2039.19Z" fill="white"/>
<path d="M5208.87 2288.94H5020.04L4898.16 2157.75H5208.87V2288.94Z" fill="#FCCA6C"/>
<path fill-rule="evenodd" clip-rule="evenodd" d="M5221.37 2274.07H5030.38L4905.72 2139.88H5221.37V2274.07ZM5031.68 2271.06H5218.37V2142.9H4912.62L5031.68 2271.06Z" fill="white"/>
<path d="M5251.94 2418.11C5251.94 2427.41 5251.52 2436.69 5250.69 2445.97C5249.57 2458.61 5247.67 2471.13 5245 2483.54C5244.1 2487.79 5243.1 2492.02 5242.02 2496.23C5240.75 2501.22 5239.35 2506.18 5237.84 2511.1L5226.7 2546.87C5215.88 2581.8 5185.36 2607.01 5149.03 2611.07L4664.31 2665.4L4606.09 2671.93L4567.73 2528.91L4547.56 2453.73L4531.87 2395.15H5229C5241.66 2395.15 5251.94 2405.4 5251.94 2418.11Z" fill="#314151"/>
<path d="M4673.18 2246.87C4673.18 2275.65 4649.86 2298.97 4621.1 2298.97C4592.32 2298.97 4569 2275.65 4569 2246.87C4569 2218.1 4592.32 2194.78 4621.1 2194.78C4649.86 2194.78 4673.18 2218.1 4673.18 2246.87Z" fill="#314151"/>
<path fill-rule="evenodd" clip-rule="evenodd" d="M4589.98 2248C4563.35 2248 4541.69 2226.34 4541.69 2199.73C4541.69 2173.11 4563.35 2151.44 4589.98 2151.44C4616.6 2151.44 4638.25 2173.11 4638.25 2199.73C4638.25 2226.34 4616.6 2248 4589.98 2248ZM4589.98 2154.46C4565.01 2154.46 4544.7 2174.76 4544.7 2199.73C4544.7 2224.68 4565.01 2244.99 4589.98 2244.99C4614.93 2244.99 4635.25 2224.68 4635.25 2199.73C4635.25 2174.76 4614.93 2154.46 4589.98 2154.46Z" fill="white"/>
<path d="M738.97 2320.93L738.901 2661.16L636.397 2652.76L353.371 2629.6C311.899 2625.58 272.487 2609.74 239.755 2583.97C224.386 2571.86 212.21 2556.56 203.899 2539.37C195.57 2522.23 191.088 2503.22 191.088 2483.63V2356.46C191.088 2336.85 206.973 2320.93 226.618 2320.93H738.97Z" fill="#314151"/>
<path d="M327.955 2564.24H253.133L247.346 2546.51L220.178 2463.4H295L327.955 2564.24Z" fill="#28537F"/>
<path d="M447.564 2564.24H372.742L366.972 2546.51L339.805 2463.4H414.627L447.564 2564.24Z" fill="#28537F"/>
<path d="M714.362 2282.91H678.659C668.699 2282.91 662.946 2271.63 668.768 2263.57L684.55 2241.76C686.834 2238.59 690.509 2236.72 694.424 2236.72H730.144C740.087 2236.72 745.84 2247.98 740.018 2256.05L724.253 2277.86C721.952 2281.04 718.277 2282.91 714.362 2282.91Z" fill="#314151"/>
<path fill-rule="evenodd" clip-rule="evenodd" d="M735.175 2270.68H699.455C694.286 2270.68 689.615 2267.83 687.263 2263.21C684.91 2258.61 685.339 2253.15 688.362 2248.96L704.126 2227.15C706.702 2223.6 710.858 2221.48 715.237 2221.48H750.94C756.109 2221.48 760.797 2224.33 763.149 2228.94C765.502 2233.54 765.073 2239 762.05 2243.19L746.269 2265.02C743.71 2268.57 739.554 2270.68 735.175 2270.68ZM715.237 2224.49C711.82 2224.49 708.574 2226.14 706.565 2228.92L690.8 2250.73C688.396 2254.04 688.087 2258.2 689.942 2261.86C691.813 2265.5 695.368 2267.68 699.455 2267.68H735.175C738.592 2267.68 741.838 2266.03 743.83 2263.25L759.612 2241.44C761.999 2238.12 762.325 2233.95 760.47 2230.31C758.599 2226.67 755.044 2224.49 750.94 2224.49H715.237Z" fill="white"/>
<path d="M251.261 2320.93L763.991 2303.04L738.884 2661.14L738.953 2320.93H251.261Z" fill="white"/>
<path fill-rule="evenodd" clip-rule="evenodd" d="M2820.78 1897.17H1703.47C1703.47 1897.17 1776.93 1849.73 1893.45 1790.58C2086.35 1692.59 2397.25 1562.54 2688.21 1562.54H2744.36L2820.78 1897.17ZM2085.15 1882.1C2083.78 1820 2065.42 1759.59 2031.57 1759.59C2000.2 1759.59 1982.15 1811.55 1978.59 1868.62C1983.71 1872.34 1988.11 1876.93 1991.59 1882.1H2002.08C2003.48 1820.84 2021.58 1783.66 2031.57 1783.66C2041.58 1783.66 2059.7 1820.84 2061.09 1882.1H2085.15Z" fill="#28537F"/>
<path d="M2061.07 1882.1H2002.08C2003.48 1820.86 2021.58 1783.66 2031.57 1783.66C2041.58 1783.66 2059.7 1820.86 2061.07 1882.1Z" fill="#BBD2EB"/>
<path d="M2801.93 1882.1H2085.15C2083.76 1820 2065.42 1759.6 2031.57 1759.6C2000.2 1759.6 1982.15 1811.55 1978.59 1868.62C1983.71 1872.36 1988.09 1876.93 1991.59 1882.1H1757.13C1768.77 1875.24 1782.46 1867.36 1797.99 1858.64C1813.87 1849.71 1831.68 1839.89 1851.19 1829.51C1864.52 1822.4 1878.61 1815.05 1893.45 1807.46C1895.7 1806.3 1897.98 1805.13 1900.28 1803.98C1958.47 1774.42 2024.74 1743.24 2096.28 1713.8C2274.77 1640.3 2486.31 1577.55 2688.21 1577.55H2732.39L2763.51 1713.8L2775.53 1766.52L2801.93 1882.1Z" fill="#BBD2EB"/>
<g opacity="0.2">
<path d="M3700.81 1866.35L3704.65 1882.11H2922.45L2918.58 1866.35L2909.41 1828.62L3685.21 1802.38L3700.81 1866.35Z" fill="#28537F"/>
</g>
<g opacity="0.2">
<path d="M4327.29 1882.11H3817.94L3813.92 1866.35L3796.6 1798.62L4150.79 1786.65C4161.6 1792.4 4172.72 1798.17 4184.14 1803.98C4245.03 1834.91 4294.35 1862.76 4327.29 1882.11Z" fill="#28537F"/>
</g>
<path d="M1893.45 1790.57V1897.16H1703.47C1703.47 1897.16 1776.93 1849.73 1893.45 1790.57Z" fill="#28537F"/>
<path d="M4327.29 1882.11H3817.94L3813.92 1866.35H4144.19L4129.2 1775.08C4146.8 1784.61 4165 1794.26 4184.14 1803.98C4245.03 1834.91 4294.35 1862.76 4327.29 1882.11Z" fill="white"/>
<path d="M3704.65 1874.23L3649.65 1656.43L3466.6 1866.35H3303.27L3403.73 1586.91C3382.39 1585.92 3360.63 1585.02 3338.66 1584.23L3276.43 1866.35H2918.58L2922.45 1882.11H3704.65L3702.73 1874.23H3704.65Z" fill="white"/>
<path fill-rule="evenodd" clip-rule="evenodd" d="M3053.65 1815.14C3009.67 1815.14 2973.9 1779.37 2973.9 1735.39C2973.9 1691.43 3009.67 1655.66 3053.65 1655.66C3097.61 1655.66 3133.38 1691.43 3133.38 1735.39C3133.38 1779.37 3097.61 1815.14 3053.65 1815.14ZM3053.65 1658.66C3011.33 1658.66 2976.9 1693.09 2976.9 1735.39C2976.9 1777.7 3011.33 1812.13 3053.65 1812.13C3095.94 1812.13 3130.37 1777.7 3130.37 1735.39C3130.37 1693.09 3095.94 1658.66 3053.65 1658.66Z" fill="white"/>
<path fill-rule="evenodd" clip-rule="evenodd" d="M3188.78 1820.94C3176.11 1820.94 3165.8 1810.62 3165.8 1797.97C3165.8 1785.29 3176.11 1774.99 3188.78 1774.99C3201.45 1774.99 3211.76 1785.29 3211.76 1797.97C3211.76 1810.62 3201.45 1820.94 3188.78 1820.94ZM3188.78 1777.99C3177.77 1777.99 3168.81 1786.96 3168.81 1797.97C3168.81 1808.97 3177.77 1817.92 3188.78 1817.92C3199.79 1817.92 3208.75 1808.97 3208.75 1797.97C3208.75 1786.96 3199.79 1777.99 3188.78 1777.99Z" fill="white"/>
<path fill-rule="evenodd" clip-rule="evenodd" d="M3872.93 1802.79C3862.92 1802.79 3854.76 1794.65 3854.76 1784.62C3854.76 1774.59 3862.92 1766.45 3872.93 1766.45C3882.96 1766.45 3891.11 1774.59 3891.11 1784.62C3891.11 1794.65 3882.96 1802.79 3872.93 1802.79ZM3872.93 1769.46C3864.57 1769.46 3857.77 1776.26 3857.77 1784.62C3857.77 1792.99 3864.57 1799.79 3872.93 1799.79C3881.29 1799.79 3888.09 1792.99 3888.09 1784.62C3888.09 1776.26 3881.29 1769.46 3872.93 1769.46Z" fill="white"/>
<path fill-rule="evenodd" clip-rule="evenodd" d="M4005.8 1854.71C3974.51 1854.71 3949.06 1829.26 3949.06 1797.97C3949.06 1766.68 3974.51 1741.21 4005.8 1741.21C4037.1 1741.21 4062.55 1766.68 4062.55 1797.97C4062.55 1829.26 4037.1 1854.71 4005.8 1854.71ZM4005.8 1744.22C3976.17 1744.22 3952.06 1768.33 3952.06 1797.97C3952.06 1827.59 3976.17 1851.7 4005.8 1851.7C4035.44 1851.7 4059.55 1827.59 4059.55 1797.97C4059.55 1768.33 4035.44 1744.22 4005.8 1744.22Z" fill="white"/>
<path d="M3332.53 2492.54H2154.67V2489.53H3332.53V2492.54Z" fill="white"/>
<path d="M290.553 2156.42H268.812C267.164 2156.42 265.807 2155.08 265.807 2153.41C265.807 2151.74 267.164 2150.4 268.812 2150.4H289.952C300.445 2146.16 455.567 2083.96 688.19 2024.8C909.497 1968.53 1248.27 1903.53 1605.31 1913.61C1606.97 1913.66 1608.28 1915.03 1608.24 1916.7C1608.19 1918.37 1606.8 1919.74 1605.15 1919.62C1248.8 1909.59 910.613 1974.45 689.684 2030.64C450.295 2091.5 293.249 2155.56 291.686 2156.19C291.32 2156.34 290.942 2156.42 290.553 2156.42Z" fill="#28537F"/>
<path d="M4898.16 2157.75L5016.78 2306.78L5208.87 2324.49V2288.94H5020.04L4898.16 2157.75Z" fill="#28537F"/>
<path d="M251.261 2265.89L261.393 2297.66L509.575 2293.42L591.971 2153.34L251.261 2265.89Z" fill="#28537F"/>
<path d="M591.97 2153.32L506.347 2259.8L494.669 2274.29L487.972 2282.67H264.879L245.354 2258.65L243.035 2255.79V2179.17L360.292 2170.48L375.06 2169.4L498.104 2160.28L516.839 2158.89L591.97 2153.32Z" fill="#FCCA6C"/>
<path fill-rule="evenodd" clip-rule="evenodd" d="M505.952 2275.8H281.434L258.8 2247.96V2169.42L612.578 2143.21L505.952 2275.8ZM282.859 2272.8H504.492L522.438 2250.49L605.88 2146.71L261.805 2172.2V2246.9L282.859 2272.8Z" fill="white"/>
<path d="M2000.92 1912.58C2000.92 1917.85 1998.77 1922.59 1995.35 1926.06C1991.88 1929.49 1987.13 1931.62 1981.87 1931.62H1826.56C1805.27 1931.62 1789.35 1915.86 1786.46 1897.17C1785.69 1892.26 1785.83 1887.18 1787.01 1882.1C1787.81 1878.66 1789.1 1875.27 1790.86 1871.93L1793.83 1866.37C1793.86 1866.34 1793.88 1866.33 1793.86 1866.33L1797.99 1858.64L1798.83 1857.04C1809.18 1837.79 1830.06 1827.16 1851.19 1829.51C1854.11 1829.81 1857.01 1830.38 1859.91 1831.23L1893.45 1840.8L1961.39 1860.2C1967.7 1862 1973.51 1864.89 1978.59 1868.62C1983.71 1872.36 1988.09 1876.93 1991.59 1882.1C1994.68 1886.7 1997.09 1891.76 1998.65 1897.17C2000.01 1901.69 2000.76 1906.45 2000.88 1911.31C2000.91 1911.73 2000.92 1912.15 2000.92 1912.58Z" fill="#314151"/>
<path d="M2000.9 1912.58C2000.9 1917.85 1998.77 1922.61 1995.34 1926.06C1991.88 1929.49 1987.13 1931.62 1981.86 1931.62H1826.56C1795.91 1931.62 1776.35 1898.93 1790.86 1871.95L1793.83 1866.38C1793.85 1866.35 1793.86 1866.34 1793.86 1866.35C1793.86 1866.35 1820.72 1911.33 1867.54 1911.33H2000.88C2000.91 1911.75 2000.91 1912.17 2000.9 1912.58Z" fill="#28537F"/>
<path opacity="0.25" d="M4050.48 2176.27L1477.2 2124.82L1386.97 2073.35H3934.79L4050.48 2176.27Z" fill="white"/>
<g opacity="0.5">
<path d="M4428.21 2604.35C4428.21 2766.19 4297.03 2897.36 4135.23 2897.36C4046.13 2897.36 3966.35 2857.62 3912.63 2794.89C3962.42 2833.94 4025.15 2857.22 4093.34 2857.22C4255.14 2857.22 4386.31 2726.06 4386.31 2564.22C4386.31 2491.51 4359.81 2424.96 4315.92 2373.76C4384.3 2427.37 4428.21 2510.74 4428.21 2604.35Z" fill="#28537F"/>
</g>
<g opacity="0.2">
<path d="M3733.07 2310.4L1667.33 2386.03L1719.73 2292.49L3676.2 2272.11L3733.07 2310.4Z" fill="#28537F"/>
</g>
<path fill-rule="evenodd" clip-rule="evenodd" d="M1648.77 2361.61L1702.9 2264.97H1703.78L3669.41 2244.58L3712.28 2273.41L1648.77 2361.61ZM1704.67 2267.97L1654.03 2358.39L3703 2270.8L3668.5 2247.59L1704.67 2267.97Z" fill="white"/>
<path d="M2591.53 2054.6L2614.28 1994.78L2794.44 2000.31H2618.69L2591.53 2054.6Z" fill="white"/>
<path d="M3716.07 2000.31L3536.27 1994.34L3513.16 2054.6L3540.33 2000.31H3716.07Z" fill="white"/>
<path d="M1328.38 1908.46L1328.22 1905.45C1330.11 1905.37 1518.34 1895.68 1604.84 1895.65C1613.45 1890.85 1776.9 1800.44 1989.14 1708.98C2254.58 1594.57 2471.73 1531 2634.51 1519.97L2634.72 1522.98C2472.26 1533.97 2255.45 1597.47 1990.32 1711.74C1773.45 1805.2 1607.57 1897.55 1605.96 1898.46L1605.62 1898.65H1605.22C1519 1898.65 1330.27 1908.35 1328.38 1908.46Z" fill="white"/>
<path d="M4606.09 2671.93L4574.32 2675.48L4531.87 2395.15L4606.09 2671.93Z" fill="#28537F"/>
<path d="M5251.94 2418.11C5251.94 2427.41 5251.52 2436.69 5250.69 2445.97L4531.87 2395.15H5229C5241.66 2395.15 5251.94 2405.4 5251.94 2418.11Z" fill="white"/>
<path fill-rule="evenodd" clip-rule="evenodd" d="M1268 2872.87C1119.95 2872.87 999.517 2752.42 999.517 2604.37C999.517 2456.32 1119.95 2335.87 1268 2335.87C1416.04 2335.87 1536.49 2456.32 1536.49 2604.37C1536.49 2752.42 1416.04 2872.87 1268 2872.87ZM1268 2338.88C1121.62 2338.88 1002.52 2457.97 1002.52 2604.37C1002.52 2750.75 1121.62 2869.86 1268 2869.86C1414.4 2869.86 1533.49 2750.75 1533.49 2604.37C1533.49 2457.97 1414.4 2338.88 1268 2338.88Z" fill="white"/>
<path fill-rule="evenodd" clip-rule="evenodd" d="M4136.5 2872.87C3988.45 2872.87 3868.02 2752.42 3868.02 2604.37C3868.02 2456.32 3988.45 2335.87 4136.5 2335.87C4284.54 2335.87 4405 2456.32 4405 2604.37C4405 2752.42 4284.54 2872.87 4136.5 2872.87ZM4136.5 2338.88C3990.12 2338.88 3871.02 2457.97 3871.02 2604.37C3871.02 2750.75 3990.12 2869.86 4136.5 2869.86C4282.9 2869.86 4401.99 2750.75 4401.99 2604.37C4401.99 2457.97 4282.9 2338.88 4136.5 2338.88Z" fill="white"/>
<path d="M506.347 2259.8L494.669 2274.29L245.354 2258.65L243.035 2255.79V2229.26L506.347 2259.8Z" fill="white"/>
<path opacity="0.2" d="M1294.77 2594.84C1294.77 2689.67 1236.14 2766.53 1163.81 2766.53C1091.48 2766.53 1032.85 2689.67 1032.85 2594.84C1032.85 2500.03 1091.48 2423.16 1163.81 2423.16C1236.14 2423.16 1294.77 2500.03 1294.77 2594.84Z" fill="white"/>
<path opacity="0.2" d="M4109.12 2591.39C4109.12 2670.09 4060.46 2733.89 4000.42 2733.89C3940.38 2733.89 3891.72 2670.09 3891.72 2591.39C3891.72 2512.68 3940.38 2448.87 4000.42 2448.87C4060.46 2448.87 4109.12 2512.68 4109.12 2591.39Z" fill="white"/>
<path d="M858.442 2200.88H785.749L803.969 2165.6H876.662L858.442 2200.88Z" fill="#FCCA6C"/>
<path fill-rule="evenodd" clip-rule="evenodd" d="M871.373 2193.23H795.314L815.08 2154.97H891.156L871.373 2193.23ZM800.243 2190.21H869.535L886.193 2157.96H816.901L800.243 2190.21Z" fill="white"/>
<path d="M860.88 2661.42C858.27 2642.66 856.93 2623.47 856.93 2604.37C856.93 2377.7 1041.35 2193.29 1268.01 2193.29C1431.33 2193.29 1579.2 2289.97 1644.73 2439.6L1641.99 2440.8C1576.92 2292.27 1430.13 2196.29 1268.01 2196.29C1043 2196.29 859.936 2379.35 859.936 2604.37C859.936 2623.33 861.258 2642.37 863.868 2661.01L860.88 2661.42Z" fill="white"/>
<path d="M3735.43 2524.17L3732.47 2523.57C3770.42 2338.1 3935.61 2203.49 4125.22 2203.49C4221.98 2203.49 4315.44 2238.43 4388.32 2301.9L4386.35 2304.17C4314.01 2241.18 4221.26 2206.49 4125.22 2206.49C3937.02 2206.49 3773.09 2340.1 3735.43 2524.17Z" fill="white"/>
<g opacity="0.25">
<path d="M687.245 2463.38L636.397 2652.76L353.371 2629.6C311.899 2625.58 272.487 2609.74 239.755 2583.97C224.386 2571.86 212.21 2556.56 203.899 2539.37C195.57 2522.23 191.088 2503.22 191.088 2483.63V2444.58L687.245 2463.38Z" fill="#28537F"/>
</g>
<g opacity="0.25">
<path d="M5242.02 2496.23C5240.75 2501.22 5239.36 2506.18 5237.84 2511.1L5226.7 2546.87C5215.88 2581.8 5185.36 2607.01 5149.03 2611.07L4664.31 2665.4L4606.09 2671.93L4567.73 2528.91L4803.32 2552.01L4833.8 2448.89L4898.18 2469.41L4871.31 2591.39H5053.54V2476.67H5126.65V2552.01L5242.02 2496.23Z" fill="#28537F"/>
</g>
<path d="M4809.26 2577.46H4722.74C4715.5 2577.46 4710.71 2569.94 4713.75 2563.38L4736.57 2514.23C4738.2 2510.73 4741.7 2508.49 4745.55 2508.49H4832.08C4839.31 2508.49 4844.12 2516.02 4841.07 2522.58L4818.24 2571.72C4816.63 2575.23 4813.12 2577.46 4809.26 2577.46Z" fill="#ADC9E6"/>
<path fill-rule="evenodd" clip-rule="evenodd" d="M4801.05 2569.53H4714.54C4710.62 2569.53 4707.01 2567.55 4704.9 2564.25C4702.81 2560.96 4702.53 2556.85 4704.18 2553.3L4727 2504.17C4728.86 2500.15 4732.93 2497.55 4737.34 2497.55H4823.87C4827.79 2497.55 4831.38 2499.53 4833.49 2502.83C4835.6 2506.12 4835.86 2510.23 4834.21 2513.78L4811.41 2562.91C4809.54 2566.93 4805.48 2569.53 4801.05 2569.53ZM4737.34 2500.56C4734.1 2500.56 4731.09 2502.47 4729.73 2505.42L4706.91 2554.57C4705.69 2557.2 4705.9 2560.2 4707.44 2562.64C4709.01 2565.06 4711.65 2566.52 4714.54 2566.52H4801.05C4804.32 2566.52 4807.3 2564.61 4808.68 2561.66L4831.48 2512.51C4832.7 2509.88 4832.51 2506.88 4830.95 2504.44C4829.4 2502.02 4826.76 2500.56 4823.87 2500.56H4737.34Z" fill="white"/>
<path d="M2222.46 1882.1H2115.56L2088.34 1869.05L2094.78 1840.99L2095.44 1838.07L2095.52 1837.6L2102.12 1840.85L2106.99 1843.23L2119.53 1849.4L2128.13 1846.79L2130.09 1849.67L2143.04 1848.71L2222.46 1882.1Z" fill="#E06361"/>
<path d="M2412.89 1693.5L2232.3 1883.35L2371.32 1881.91C2371.32 1881.91 2402.06 1870.01 2431.1 1849.21C2446.52 1838.17 2412.89 1693.5 2412.89 1693.5Z" fill="#E06361"/>
<path d="M2571.31 1630.19C2567.28 1637.44 2562.62 1645.4 2557.23 1654.13C2553.64 1653.97 2549.4 1653.65 2544.75 1653.23H2544.71C2516.86 1650.66 2474.75 1644.1 2474.75 1644.1L2443 1604.53C2443 1604.53 2400.2 1607.23 2406.25 1576.44C2406.5 1575.21 2406.82 1573.93 2407.23 1572.59C2414.09 1549.8 2433.77 1559.47 2433.77 1559.47C2433.77 1559.47 2439.1 1544.91 2444.11 1529.31C2462.49 1527.08 2512.1 1528.75 2579.52 1482.5C2579.52 1482.5 2580.43 1514.34 2579.78 1527.89C2579.71 1529.34 2579.62 1530.56 2579.52 1531.55C2580.41 1533.71 2581.51 1536.06 2582.72 1538.45C2588.31 1549.56 2596.23 1561.63 2596.23 1561.63C2596.23 1561.63 2600.99 1576.75 2571.31 1630.19Z" fill="#F9BE8F"/>
<path d="M2671.24 1478.98C2665.68 1490.38 2662.07 1500.02 2650.84 1509.34C2641.12 1517.43 2625.68 1525.3 2598.27 1533.87C2598.29 1533.87 2598.29 1533.87 2598.27 1533.87C2593.48 1535.38 2588.29 1536.91 2582.72 1538.45C2581.51 1536.06 2580.41 1533.71 2579.52 1531.55C2579.62 1530.56 2579.71 1529.34 2579.78 1527.89C2579.97 1523.67 2580.02 1517.65 2580 1511.37C2579.93 1497.56 2579.52 1482.5 2579.52 1482.5C2512.1 1528.75 2462.49 1527.08 2444.11 1529.31C2439.1 1544.91 2433.77 1559.47 2433.77 1559.47C2433.77 1559.47 2433.77 1559.46 2433.76 1559.45C2433.21 1559.21 2413.99 1550.13 2407.23 1572.59C2406.82 1573.93 2406.5 1575.21 2406.25 1576.44C2405.49 1576.06 2367.81 1556.77 2351.07 1526.31C2343.33 1512.28 2340.03 1495.86 2346.86 1477.83C2361.82 1438.4 2450.07 1402.22 2545.64 1416.18C2586.84 1422.17 2629.36 1437.49 2667.98 1465.84C2672.1 1468.88 2673.47 1474.4 2671.24 1478.98Z" fill="#CC571D"/>
<path d="M2650.84 1509.34C2641.12 1517.43 2625.68 1525.3 2598.27 1533.87C2598.29 1533.87 2598.29 1533.87 2598.27 1533.87C2593.48 1535.38 2588.29 1536.91 2582.72 1538.45C2581.51 1536.06 2580.41 1533.71 2579.52 1531.55C2579.62 1530.56 2579.71 1529.34 2579.78 1527.89C2580.43 1514.34 2579.52 1482.5 2579.52 1482.5C2579.52 1482.5 2639.25 1448.91 2656.63 1475.48C2664.22 1487.1 2659.07 1499.28 2650.84 1509.34Z" fill="#AF4E15"/>
<path d="M2571.31 1630.19C2600.99 1576.75 2596.23 1561.63 2596.23 1561.63C2596.23 1561.63 2588.31 1549.56 2582.72 1538.45C2588.29 1536.91 2593.48 1535.38 2598.27 1533.87C2598.29 1533.87 2598.29 1533.87 2598.27 1533.87C2598.27 1533.87 2603.32 1571.23 2624.6 1585.2C2645.88 1599.16 2637.39 1639.93 2571.31 1630.19Z" fill="#CC571D"/>
<path d="M2441.86 1568.5C2439.7 1562.44 2433.64 1559.99 2433.57 1559.97L2433.96 1558.97C2434.24 1559.08 2440.54 1561.62 2442.86 1568.14L2441.86 1568.5Z" fill="#F78263"/>
<path d="M2437.04 1596.36C2428.26 1594.57 2421.51 1590.74 2418.49 1585.88C2416.84 1583.22 2416.38 1580.34 2417.12 1577.52C2417.64 1575.6 2418.73 1574.18 2420.36 1573.28C2424.5 1571.03 2430.63 1572.97 2430.91 1573.05L2430.58 1574.07C2430.51 1574.05 2424.61 1572.18 2420.88 1574.22C2419.5 1574.98 2418.59 1576.17 2418.15 1577.79C2417.48 1580.32 2417.91 1582.91 2419.4 1585.32C2422.25 1589.93 2428.76 1593.59 2437.26 1595.31L2437.04 1596.36Z" fill="#F78263"/>
<path d="M2603.15 1699.34C2555.94 1725.7 2493.98 1735.97 2463.19 1727.18C2462.36 1726.95 2461.54 1726.7 2460.74 1726.42C2450.21 1708.89 2452.96 1694.09 2457.63 1684.25C2457.63 1684.25 2457.63 1684.24 2457.63 1684.23C2461.51 1676.07 2466.71 1671.35 2466.71 1671.35L2466.28 1670.15L2466.27 1670.13L2443 1604.53L2474.75 1644.1C2474.75 1644.1 2516.91 1650.66 2544.75 1653.23V1671.35C2544.75 1671.35 2579.81 1684.87 2597.57 1695.62H2597.59C2599.74 1696.92 2601.59 1698.16 2603.15 1699.34Z" fill="#F9BE8F"/>
<path d="M2544.2 1684.11C2543.89 1684.11 2543.66 1683.87 2543.66 1683.58L2543.72 1655.38C2543.72 1655.09 2543.96 1654.85 2544.25 1654.85C2544.54 1654.85 2544.78 1655.09 2544.78 1655.38L2544.73 1683.58C2544.73 1683.87 2544.49 1684.11 2544.2 1684.11Z" fill="#F78263"/>
<path d="M2664.22 1880.81C2664.22 1880.81 2469.22 1882.11 2422.2 1882.11C2376.3 1850.28 2381.45 1812.43 2386.62 1796.15C2387.94 1792.03 2392.8 1782.27 2399.58 1769.92C2419.59 1733.45 2456.22 1674.36 2466.71 1671.35C2466.71 1671.35 2441.45 1694.31 2460.74 1726.42C2461.54 1726.7 2462.36 1726.95 2463.19 1727.18C2493.98 1735.97 2555.94 1725.7 2603.15 1699.34C2647.06 1735.47 2664.22 1880.81 2664.22 1880.81Z" fill="#FE7568"/>
<path d="M2741.92 2087.54L2736.1 2102.41L2616.12 2053.4L2393.01 1962.23L2387.24 1968.94L2382.84 1957.42L2369 1961.25V1947.9L2381.43 1891.64L2395.89 1884.02L2397.03 1887.44L2404.01 1886.61L2404.27 1891.99C2590.36 1940.86 2612.41 1962.79 2612.41 1962.79C2612.41 1962.79 2539.65 1829.38 2561.21 1742.17C2566.61 1731.39 2603.15 1699.34 2603.15 1699.34C2603.15 1699.34 2634.15 1720.64 2649.07 1733.83C2652.68 1737 2655.34 1739.7 2656.4 1741.54C2661.97 1750.98 2751.15 1900.95 2734.88 2082.26L2741.92 2087.54Z" fill="#FE7568"/>
<path d="M2466.71 1671.35C2456.22 1674.36 2419.59 1733.45 2399.58 1769.92C2386.77 1726.27 2407.23 1694.12 2417.31 1690.69C2427.39 1687.25 2466.27 1670.13 2466.27 1670.13L2466.28 1670.15L2466.71 1671.35Z" fill="#E06361"/>
<path d="M2207.39 1883.5L2232.73 1864.41C2240.8 1858.35 2250.54 1854.91 2260.62 1854.6L2293.27 1853.56C2294.3 1853.52 2295.31 1853.8 2296.19 1854.34L2332.87 1877.48L2314.58 1899.68L2289.92 1883.01L2207.39 1883.5Z" fill="#F9BE8F"/>
<path d="M2381.43 1891.64L2369 1947.9L2307.25 1908.58L2334.19 1875.88L2381.43 1891.64Z" fill="#FE9186"/>
<path d="M2360.82 1936.62C2360.73 1936.62 2360.64 1936.59 2360.55 1936.53L2320.83 1912.8C2320.59 1912.65 2320.5 1912.32 2320.66 1912.06C2320.79 1911.81 2321.14 1911.74 2321.38 1911.89L2361.1 1935.62C2361.36 1935.78 2361.44 1936.11 2361.29 1936.36C2361.17 1936.52 2361.02 1936.61 2360.82 1936.62Z" fill="#B14237"/>
<path d="M2369.29 1926.01C2369.2 1926.01 2369.11 1925.98 2369.03 1925.94L2322.91 1899.66C2322.67 1899.53 2322.56 1899.2 2322.72 1898.94C2322.86 1898.69 2323.2 1898.6 2323.44 1898.74L2369.57 1925.01C2369.82 1925.15 2369.91 1925.48 2369.75 1925.73C2369.65 1925.92 2369.5 1926.01 2369.29 1926.01Z" fill="#B14237"/>
<path d="M2373.02 1912.87C2372.95 1912.87 2372.87 1912.85 2372.79 1912.82L2331.29 1893.89C2331.03 1893.77 2330.91 1893.46 2331.03 1893.19C2331.15 1892.93 2331.46 1892.81 2331.73 1892.93L2373.24 1911.86C2373.52 1911.98 2373.64 1912.29 2373.5 1912.56C2373.4 1912.77 2373.24 1912.87 2373.02 1912.87Z" fill="#B14237"/>
<path d="M2376.74 1899.73C2376.68 1899.73 2376.6 1899.72 2376.52 1899.7L2334.74 1880.67C2334.48 1880.55 2334.36 1880.22 2334.48 1879.97C2334.6 1879.69 2334.91 1879.57 2335.19 1879.69L2376.97 1898.72C2377.22 1898.84 2377.35 1899.17 2377.23 1899.42C2377.12 1899.63 2376.96 1899.73 2376.74 1899.73Z" fill="#B14237"/>
<path d="M2651.39 1992.17C2651.09 1992.17 2650.83 1992.07 2650.62 1991.85C2641.43 1982.23 2612.13 1963.89 2611.84 1963.7C2611.68 1963.6 2611.55 1963.47 2611.46 1963.31C2536.06 1826.22 2561.61 1739.99 2561.88 1739.13C2562.06 1738.58 2562.66 1738.27 2563.21 1738.45C2563.77 1738.62 2564.08 1739.22 2563.91 1739.77C2563.65 1740.63 2538.43 1825.96 2613.2 1962.04C2616.22 1963.93 2643.13 1980.93 2652.15 1990.37C2652.56 1990.8 2652.54 1991.47 2652.11 1991.88C2651.9 1992.08 2651.66 1992.17 2651.39 1992.17Z" fill="#B14237"/>
<path d="M2580 1511.37C2570.47 1521.45 2476.74 1539.58 2451.22 1536.06C2436.69 1566.44 2433.77 1559.47 2433.77 1559.47C2433.77 1559.47 2439.1 1544.91 2444.11 1529.31C2462.49 1527.08 2512.1 1528.75 2579.52 1482.5C2579.52 1482.5 2579.93 1497.56 2580 1511.37Z" fill="#F78263"/>
<path d="M2544.73 1664.74L2471.85 1661.08L2443 1604.53L2474.75 1644.1C2474.75 1644.1 2516.86 1650.66 2544.71 1653.23L2544.73 1664.74Z" fill="#F78263"/>
<path d="M2457.65 1684.23C2457.65 1684.23 2457.64 1684.24 2457.63 1684.25C2457.63 1684.25 2457.63 1684.24 2457.63 1684.23C2457.64 1684.23 2457.65 1684.23 2457.65 1684.23Z" fill="#F78263"/>
<path opacity="0.5" d="M2603.15 1699.34C2555.94 1725.7 2493.98 1735.97 2463.19 1727.18C2462.36 1726.95 2461.54 1726.7 2460.74 1726.42C2450.21 1708.89 2452.96 1694.09 2457.63 1684.25C2457.46 1685.12 2451.81 1711.24 2462.08 1724.21C2483.51 1725.33 2484.92 1735.97 2597.57 1695.62H2597.59C2599.74 1696.92 2601.59 1698.16 2603.15 1699.34Z" fill="#F78263"/>
<path d="M2405.22 1868.94C2404.93 1868.94 2404.68 1868.83 2404.46 1868.62C2375.44 1838.08 2380.01 1811.5 2387.22 1791.75C2402.81 1749.02 2450.36 1689.18 2450.85 1688.58C2451.21 1688.13 2451.88 1688.04 2452.34 1688.42C2452.8 1688.78 2452.87 1689.45 2452.51 1689.92C2452.03 1690.5 2404.7 1750.09 2389.21 1792.49C2384.71 1804.8 2374.17 1833.65 2405.99 1867.16C2406.4 1867.59 2406.38 1868.26 2405.96 1868.65C2405.74 1868.86 2405.49 1868.95 2405.22 1868.94Z" fill="#B14237"/>
<path d="M2558.02 1586.96C2545.6 1573.86 2547.2 1552.64 2547.22 1552.41L2548.28 1552.5C2548.27 1552.72 2546.7 1573.48 2558.79 1586.23L2558.02 1586.96Z" fill="#F78263"/>
<path opacity="0.25" d="M2545.64 1416.18C2539.39 1424.05 2529.77 1429.04 2520.15 1432.46C2511.45 1435.55 2501.83 1438.08 2496.03 1445.25C2492.75 1449.32 2491.06 1454.46 2487.9 1458.61C2481.77 1466.65 2470.95 1469.76 2460.86 1469.64C2450.76 1469.5 2440.92 1466.67 2430.92 1465.09C2420.95 1463.53 2410.23 1463.34 2401.32 1468.08C2380.8 1479 2379.18 1509.89 2359.9 1522.86C2357.54 1522.86 2354.23 1524.87 2351.07 1526.31C2343.33 1512.28 2340.03 1495.86 2346.86 1477.83C2361.82 1438.4 2450.07 1402.22 2545.64 1416.18Z" fill="white"/>
<path fill-rule="evenodd" clip-rule="evenodd" d="M2412.02 1560.69C2411.94 1560.69 2411.86 1560.67 2411.78 1560.64C2410.21 1559.85 2373.14 1540.8 2356.36 1510.29C2347.4 1494.04 2345.99 1477.59 2352.14 1461.38C2359.62 1441.61 2385.59 1422.48 2421.62 1410.2C2461.08 1396.76 2507.19 1392.91 2551.48 1399.37C2596.87 1405.98 2638.1 1422.74 2674.06 1449.15C2678.39 1452.31 2679.83 1458.12 2677.48 1462.94C2676.78 1464.37 2676.1 1465.78 2675.45 1467.17C2670.83 1476.87 2666.85 1485.25 2656.95 1493.48C2646.29 1502.34 2629.53 1510.17 2604.2 1518.1C2604.19 1518.11 2604.17 1518.12 2604.15 1518.12C2599.17 1519.68 2593.95 1521.21 2588.62 1522.69C2588.38 1522.75 2588.12 1522.65 2588 1522.43C2586.73 1519.92 2585.66 1517.6 2584.78 1515.47C2584.75 1515.38 2584.74 1515.29 2584.74 1515.2C2584.86 1514.26 2584.94 1513.06 2585 1511.59C2585.19 1507.8 2585.26 1502.1 2585.22 1495.09C2585.17 1483.45 2584.86 1470.77 2584.78 1467.22C2525.77 1507.44 2479.97 1511.08 2457.92 1512.83C2454.97 1513.06 2452.42 1513.29 2450.28 1513.53C2445.33 1528.83 2440.08 1543.22 2440.03 1543.38C2439.96 1543.56 2439.83 1543.68 2439.63 1543.72C2439.49 1543.75 2439.36 1543.72 2439.24 1543.64C2438.1 1543.12 2430.53 1539.94 2423.63 1543.04C2418.96 1545.13 2415.55 1549.66 2413.49 1556.47C2413.1 1557.77 2412.78 1559.04 2412.53 1560.26C2412.5 1560.43 2412.4 1560.56 2412.24 1560.64C2412.17 1560.67 2412.1 1560.69 2412.02 1560.69ZM2509.1 1397.38C2478.75 1397.38 2448.8 1402.06 2421.96 1411.22C2386.24 1423.39 2360.5 1442.28 2353.13 1461.76C2347.09 1477.66 2348.49 1493.82 2357.29 1509.77C2372.74 1537.88 2406.64 1556.71 2411.64 1559.37C2411.87 1558.33 2412.15 1557.26 2412.48 1556.17C2414.63 1549.05 2418.23 1544.31 2423.2 1542.07C2429.89 1539.05 2436.95 1541.51 2439.24 1542.47C2440.23 1539.69 2444.94 1526.6 2449.37 1512.88C2449.44 1512.66 2449.58 1512.54 2449.8 1512.5C2452.04 1512.25 2454.72 1512.01 2457.83 1511.78C2479.9 1510.03 2525.82 1506.37 2584.98 1465.79C2585.15 1465.68 2585.33 1465.66 2585.51 1465.74C2585.7 1465.84 2585.79 1466 2585.81 1466.2C2585.81 1466.36 2586.24 1481.44 2586.29 1495.09C2586.32 1502.22 2586.25 1507.78 2586.06 1511.64C2586.01 1513.05 2585.93 1514.23 2585.82 1515.18C2586.64 1517.15 2587.62 1519.27 2588.76 1521.55C2593.93 1520.11 2599.01 1518.6 2603.87 1517.09C2603.9 1517.08 2603.91 1517.07 2603.92 1517.07C2629.08 1509.19 2645.72 1501.43 2656.27 1492.65C2665.99 1484.58 2669.92 1476.3 2674.49 1466.7C2675.15 1465.32 2675.83 1463.91 2676.51 1462.48C2678.64 1458.12 2677.34 1452.88 2673.42 1450.01C2637.62 1423.7 2596.54 1407.01 2551.32 1400.42C2537.34 1398.39 2523.18 1397.38 2509.1 1397.38Z" fill="white"/>
<path fill-rule="evenodd" clip-rule="evenodd" d="M2383.34 1483.03C2375.99 1483.03 2370.01 1477.06 2370.01 1469.71C2370.01 1462.38 2375.99 1456.4 2383.34 1456.4C2390.67 1456.4 2396.65 1462.38 2396.65 1469.71C2396.65 1477.06 2390.67 1483.03 2383.34 1483.03ZM2383.34 1457.46C2376.57 1457.46 2371.08 1462.96 2371.08 1469.71C2371.08 1476.47 2376.57 1481.97 2383.34 1481.97C2390.09 1481.97 2395.58 1476.47 2395.58 1469.71C2395.58 1462.96 2390.09 1457.46 2383.34 1457.46Z" fill="white"/>
<path fill-rule="evenodd" clip-rule="evenodd" d="M2447.91 1491.36C2432.61 1491.36 2420.16 1481.66 2420.16 1469.71C2420.16 1457.77 2432.61 1448.07 2447.91 1448.07C2463.21 1448.07 2475.66 1457.77 2475.66 1469.71C2475.66 1481.66 2463.21 1491.36 2447.91 1491.36ZM2447.91 1449.14C2433.19 1449.14 2421.22 1458.36 2421.22 1469.71C2421.22 1481.08 2433.19 1490.3 2447.91 1490.3C2462.63 1490.3 2474.59 1481.08 2474.59 1469.71C2474.59 1458.36 2462.63 1449.14 2447.91 1449.14Z" fill="white"/>
<path opacity="0.25" d="M2741.92 2087.54L2736.1 2102.41L2616.12 2053.4C2644.18 2054.44 2672.24 2055.48 2700.3 2056.52C2703.7 2020.9 2704.11 1985.01 2701.6 1949.35C2697.21 1886.7 2683.81 1824.69 2661.93 1765.82C2657.93 1755.05 2653.64 1744.38 2649.07 1733.83C2652.68 1737 2655.34 1739.7 2656.4 1741.54C2661.97 1750.98 2751.15 1900.95 2734.88 2082.26L2741.92 2087.54Z" fill="#B14237"/>
<path d="M2741.92 2088.6C2741.72 2088.6 2741.52 2088.54 2741.34 2088.43L2703.18 2063.85C2702.68 2063.55 2702.55 2062.88 2702.86 2062.39C2703.18 2061.9 2703.84 2061.76 2704.33 2062.07L2742.49 2086.64C2742.99 2086.95 2743.13 2087.62 2742.82 2088.12C2742.61 2088.43 2742.27 2088.6 2741.92 2088.6Z" fill="#B14237"/>
<path d="M2733.65 2088.6C2733.58 2088.6 2733.5 2088.59 2733.42 2088.58C2732.86 2088.46 2732.48 2087.9 2732.62 2087.31C2738.46 2059.89 2734.13 1995.99 2734.08 1995.33C2734.04 1994.75 2734.49 1994.25 2735.07 1994.2C2735.66 1994.18 2736.17 1994.61 2736.21 1995.2C2736.26 1995.83 2740.59 2060.04 2734.69 2087.76C2734.59 2088.26 2734.15 2088.6 2733.65 2088.6Z" fill="#B14237"/>
<path d="M2694.85 1823.85C2694.44 1823.85 2694.05 1823.61 2693.87 1823.19C2664.72 1753.82 2657.35 1745.18 2648.81 1735.15L2648.26 1734.51C2643.16 1729.62 2619.31 1712.09 2619.07 1711.91C2618.59 1711.57 2618.49 1710.9 2618.85 1710.42C2619.19 1709.94 2619.86 1709.85 2620.32 1710.2C2621.32 1710.92 2644.54 1727.99 2649.81 1733.05L2650.43 1733.77C2659.43 1744.34 2666.55 1752.7 2695.83 1822.37C2696.06 1822.92 2695.82 1823.54 2695.27 1823.78C2695.13 1823.83 2694.99 1823.86 2694.85 1823.85Z" fill="#B14237"/>
<path d="M2085.15 1882.1H2061.07C2059.7 1820.86 2041.58 1783.66 2031.57 1783.66C2021.58 1783.66 2003.48 1820.86 2002.08 1882.1H1991.59C1988.09 1876.93 1983.71 1872.36 1978.59 1868.62C1982.15 1811.55 2000.2 1759.6 2031.57 1759.6C2055.9 1759.6 2072.22 1790.79 2079.98 1831.4C2080.31 1833.18 2080.63 1834.96 2080.94 1836.76C2082.66 1846.69 2083.83 1857.11 2084.51 1867.72C2084.82 1872.49 2085.03 1877.28 2085.15 1882.1Z" fill="#28537F"/>
<path d="M2094.78 1840.98L2088.34 1869.05L2084.51 1867.72C2083.83 1857.11 2082.66 1846.69 2080.94 1836.76L2094.78 1840.98Z" fill="#F9BE8F"/>
<path d="M2069.76 1850.62C2072.6 1863.86 2070.09 1875.64 2064.16 1876.89C2058.24 1878.16 2051.15 1868.44 2048.31 1855.2C2045.48 1841.95 2047.99 1830.18 2053.91 1828.91C2059.84 1827.64 2066.93 1837.36 2069.76 1850.62Z" fill="#F9BE8F"/>
<path d="M2080.94 1829.19C2080.94 1836.57 2078.14 1842.56 2074.69 1842.56C2071.22 1842.56 2068.42 1836.57 2068.42 1829.19C2068.42 1821.8 2071.22 1815.81 2074.69 1815.81C2078.14 1815.81 2080.94 1821.8 2080.94 1829.19Z" fill="#F9BE8F"/>
<path d="M2115.56 1882.1L2119.53 1849.4L2095.52 1837.6L2088.34 1869.05L2115.56 1882.1Z" fill="#FE9186"/>
<path d="M2117.37 1853.78C2117.29 1853.78 2117.21 1853.76 2117.13 1853.71L2096.67 1843.34C2096.41 1843.22 2096.31 1842.89 2096.45 1842.63C2096.57 1842.36 2096.9 1842.26 2097.15 1842.39L2117.61 1852.77C2117.88 1852.9 2117.98 1853.21 2117.85 1853.49C2117.73 1853.67 2117.57 1853.77 2117.37 1853.78Z" fill="#B14237"/>
<path d="M2111.51 1862.23C2111.43 1862.23 2111.35 1862.21 2111.27 1862.18L2094.53 1853.38C2094.27 1853.25 2094.17 1852.92 2094.3 1852.66C2094.44 1852.4 2094.77 1852.3 2095.02 1852.44L2111.77 1861.23C2112.02 1861.37 2112.11 1861.7 2111.99 1861.95C2111.88 1862.14 2111.72 1862.23 2111.51 1862.23Z" fill="#B14237"/>
<path d="M2114.91 1878.64C2114.82 1878.64 2114.73 1878.62 2114.65 1878.58L2092.14 1866.64C2091.88 1866.5 2091.78 1866.18 2091.92 1865.92C2092.05 1865.66 2092.38 1865.56 2092.64 1865.7L2115.15 1877.63C2115.43 1877.77 2115.51 1878.1 2115.37 1878.35C2115.27 1878.54 2115.12 1878.63 2114.91 1878.64Z" fill="#B14237"/>
<path opacity="0.25" d="M2622.37 1836.81C2635.28 1878.28 2637.93 1914.33 2628.28 1917.34C2618.62 1920.34 2600.34 1889.15 2587.42 1847.68C2574.51 1806.23 2571.86 1770.16 2581.51 1767.16C2591.16 1764.15 2609.45 1795.34 2622.37 1836.81Z" fill="white"/>
<path fill-rule="evenodd" clip-rule="evenodd" d="M2630.39 1903.41C2625.58 1903.41 2619.14 1896.92 2612.05 1884.81C2604.3 1871.62 2596.59 1853.28 2590.34 1833.19C2577.13 1790.81 2574.7 1755.14 2584.78 1751.99C2589.72 1750.45 2596.75 1756.99 2604.61 1770.37C2612.34 1783.56 2620.05 1801.9 2626.3 1821.99C2632.57 1842.08 2636.62 1861.56 2637.75 1876.81C2638.89 1892.28 2636.79 1901.66 2631.86 1903.18C2631.4 1903.33 2630.9 1903.41 2630.39 1903.41ZM2586.29 1752.84C2585.88 1752.84 2585.48 1752.89 2585.1 1753.01C2575.9 1755.88 2578.77 1792.45 2591.35 1832.88C2597.59 1852.89 2605.26 1871.14 2612.96 1884.26C2620.43 1897 2627.23 1903.53 2631.56 1902.17C2635.9 1900.81 2637.77 1891.59 2636.69 1876.88C2635.57 1861.71 2631.52 1842.32 2625.29 1822.3C2619.05 1802.29 2611.38 1784.04 2603.68 1770.92C2596.87 1759.29 2590.62 1752.84 2586.29 1752.84Z" fill="white"/>
<g opacity="0.2">
<path d="M3716.26 3224.24C3716.26 3245.5 3618.51 3262.72 3497.94 3262.72C3377.35 3262.72 3279.62 3245.5 3279.62 3224.24C3279.62 3202.98 3377.35 3185.76 3497.94 3185.76C3618.51 3185.76 3716.26 3202.98 3716.26 3224.24Z" fill="#315B8A"/>
</g>
<path d="M3585.54 3199.07L3485.15 2746.96L3416.71 2732.14L3327.09 3180.97L3272.32 3177.14L3272.74 3233.43L3637.95 3230.85L3637.76 3202.71L3585.54 3199.07Z" fill="#FE7568"/>
<path opacity="0.2" d="M3416.73 2732.14L3437.03 2736.53L3464.4 3190.58L3327.09 3180.97L3416.73 2732.14Z" fill="white"/>
<path fill-rule="evenodd" clip-rule="evenodd" d="M3255.72 3225.89C3255.15 3225.89 3254.71 3225.44 3254.71 3224.89L3254.31 3168.6C3254.31 3168.31 3254.41 3168.07 3254.62 3167.86C3254.83 3167.67 3255.08 3167.58 3255.39 3167.59L3309.25 3171.37L3398.72 2723.39C3398.77 2723.12 3398.92 2722.9 3399.15 2722.74C3399.39 2722.59 3399.64 2722.55 3399.92 2722.6L3468.35 2737.42C3468.73 2737.51 3469.02 2737.8 3469.11 2738.2L3569.33 3189.57L3620.81 3193.16C3621.33 3193.19 3621.74 3193.64 3621.74 3194.15L3621.95 3222.3C3621.95 3222.59 3621.85 3222.83 3621.65 3223.02C3621.46 3223.22 3621.23 3223.31 3620.95 3223.31L3255.72 3225.89ZM3256.32 3169.68L3256.71 3223.88L3619.92 3221.32L3619.75 3195.1L3568.44 3191.51C3568.01 3191.49 3567.63 3191.17 3567.53 3190.74L3467.29 2739.26L3400.49 2724.79L3311.05 3172.62C3310.95 3173.12 3310.48 3173.44 3309.98 3173.43L3256.32 3169.68Z" fill="white"/>
<path d="M3398.56 2823.07L3507.25 2846.49L3512.42 2869.76L3390.06 2857.05L3398.56 2823.07Z" fill="white"/>
<path d="M3359.85 3016.86L3557.51 3072.86L3561.89 3092.56L3346.89 3081.78L3359.85 3016.86Z" fill="white"/>
<g opacity="0.2">
<path d="M5511.7 3300.78C5511.7 3322.02 5411.2 3339.26 5287.23 3339.26C5163.26 3339.26 5062.77 3322.02 5062.77 3300.78C5062.77 3279.52 5163.26 3262.28 5287.23 3262.28C5411.2 3262.28 5511.7 3279.52 5511.7 3300.78Z" fill="#315B8A"/>
</g>
<path d="M5375.96 3273.94L5275.59 2821.83L5207.16 2807.01L5117.51 3255.85L5062.77 3252.03L5063.16 3308.32L5428.39 3305.74L5428.2 3277.58L5375.96 3273.94Z" fill="#FE7568"/>
<path opacity="0.2" d="M5207.16 2807.01L5227.47 2811.4L5254.84 3265.45L5117.51 3255.85L5207.16 2807.01Z" fill="white"/>
<path fill-rule="evenodd" clip-rule="evenodd" d="M5046.14 3300.78C5045.59 3300.78 5045.15 3300.33 5045.15 3299.77L5044.75 3243.47C5044.75 3243.19 5044.85 3242.94 5045.06 3242.74C5045.27 3242.54 5045.52 3242.45 5045.82 3242.48L5099.69 3246.24L5189.16 2798.27C5189.22 2797.99 5189.36 2797.78 5189.59 2797.63C5189.83 2797.47 5190.09 2797.42 5190.36 2797.48L5258.78 2812.3C5259.17 2812.38 5259.46 2812.69 5259.55 2813.07L5359.77 3264.44L5411.25 3268.05C5411.77 3268.08 5412.18 3268.51 5412.18 3269.04L5412.39 3297.19C5412.39 3297.47 5412.29 3297.7 5412.1 3297.89C5411.9 3298.09 5411.67 3298.19 5411.39 3298.2L5046.16 3300.78C5046.15 3300.78 5046.14 3300.78 5046.14 3300.78ZM5046.76 3244.56L5047.14 3298.75L5410.36 3296.19L5410.17 3269.99L5358.88 3266.4C5358.43 3266.36 5358.07 3266.04 5357.97 3265.61L5257.73 2814.14L5190.93 2799.66L5101.49 3247.51C5101.39 3248.01 5100.91 3248.32 5100.43 3248.32L5046.76 3244.56Z" fill="white"/>
<path d="M5189 2897.94L5297.69 2921.38L5302.86 2944.65L5180.5 2931.92L5189 2897.94Z" fill="white"/>
<path d="M5150.3 3091.73L5347.96 3147.73L5352.32 3167.45L5137.33 3156.65L5150.3 3091.73Z" fill="white"/>
<g opacity="0.2">
<path d="M5611.85 2154.18C5611.85 2164.11 5564.87 2172.16 5506.91 2172.16C5448.95 2172.16 5401.96 2164.11 5401.96 2154.18C5401.96 2144.24 5448.95 2136.19 5506.91 2136.19C5564.87 2136.19 5611.85 2144.24 5611.85 2154.18Z" fill="#315B8A"/>
</g>
<path d="M5548.4 2138.11L5501.46 1926.75L5469.47 1919.83L5427.57 2129.64L5401.96 2127.86L5402.15 2154.18L5572.9 2152.96L5572.8 2139.81L5548.4 2138.11Z" fill="#FE7568"/>
<path fill-rule="evenodd" clip-rule="evenodd" d="M5394.2 2150.65C5393.94 2150.65 5393.72 2150.44 5393.72 2150.18L5393.55 2123.87C5393.55 2123.74 5393.6 2123.62 5393.69 2123.53C5393.79 2123.44 5393.91 2123.39 5394.05 2123.39L5419.22 2125.16L5461.06 1915.74C5461.08 1915.6 5461.15 1915.5 5461.26 1915.43C5461.36 1915.36 5461.48 1915.34 5461.61 1915.36L5493.6 1922.3C5493.79 1922.34 5493.91 1922.46 5493.96 1922.66L5540.81 2133.66L5564.88 2135.34C5565.12 2135.36 5565.31 2135.57 5565.31 2135.81L5565.42 2148.98C5565.42 2149.11 5565.37 2149.21 5565.28 2149.31C5565.19 2149.4 5565.08 2149.44 5564.95 2149.44L5394.2 2150.65ZM5394.49 2124.37L5394.67 2149.7L5564.47 2148.52L5564.38 2136.25L5540.39 2134.57C5540.19 2134.57 5540.02 2134.42 5539.97 2134.21L5493.12 1923.16L5461.88 1916.39L5420.06 2125.75C5420.03 2125.99 5419.81 2126.12 5419.57 2126.12L5394.49 2124.37Z" fill="white"/>
<g opacity="0.05">
<path d="M5239.39 1934.22C5239.39 1944.64 5205.03 1953.09 5162.66 1953.09C5120.28 1953.09 5085.92 1944.64 5085.92 1934.22C5085.92 1923.79 5120.28 1915.36 5162.66 1915.36C5205.03 1915.36 5239.39 1923.79 5239.39 1934.22Z" fill="#315B8A"/>
</g>
<g opacity="0.05">
<path d="M349.61 1972.01C349.61 1983.93 310.301 1993.6 261.805 1993.6C213.309 1993.6 174 1983.93 174 1972.01C174 1960.1 213.309 1950.43 261.805 1950.43C310.301 1950.43 349.61 1960.1 349.61 1972.01Z" fill="#315B8A"/>
</g>
<g opacity="0.05">
<path d="M2862.7 3262.28C2862.7 3295.59 2770.72 3322.59 2657.28 3322.59C2543.82 3322.59 2451.86 3295.59 2451.86 3262.28C2451.86 3228.98 2543.82 3201.97 2657.28 3201.97C2770.72 3201.97 2862.7 3228.98 2862.7 3262.28Z" fill="#315B8A"/>
</g>
<g opacity="0.2">
<path d="M1215.14 3224.22C1215.14 3269.61 1080.66 3306.41 914.768 3306.41C748.878 3306.41 614.397 3269.61 614.397 3224.22C614.397 3178.84 748.878 3142.03 914.768 3142.03C1080.66 3142.03 1215.14 3178.84 1215.14 3224.22Z" fill="#315B8A"/>
</g>
<path d="M1042.53 1675.52V1752.49L1048.68 1837.96C1068.28 1847.12 1086.56 1856.25 1086.56 1856.25L1092.8 1851.43L1120.72 1880.29L1137.4 1878.82L1449.5 1850.94L1465.11 1851.58L1488.87 1852.52L1491.41 1852.63L1489.41 1810.02L1478.19 1808V1807.98L1463.08 1805.23L1150.1 1747.46L1160.96 1681.55L1042.53 1675.52Z" fill="#F9BE8F"/>
<path d="M1344.5 1784.5C1344.91 1784.5 1345.27 1784.21 1345.36 1783.8C1345.45 1783.34 1345.14 1782.87 1344.66 1782.79L1150.72 1746.6C1150.46 1746.56 1150.22 1746.62 1150.02 1746.79L1110.26 1780C1109.9 1780.31 1109.85 1780.86 1110.16 1781.22C1110.47 1781.6 1111 1781.65 1111.38 1781.34L1150.81 1748.39L1344.35 1784.49C1344.39 1784.5 1344.44 1784.5 1344.5 1784.5Z" fill="white"/>
<path d="M1479.55 1861.06L1450.65 1856.56L1450.9 1847L1451.87 1813.8L1452.24 1800.03L1474.41 1802.6L1474.84 1807.38L1475.48 1814.8L1478.14 1845.12L1478.76 1852.11L1479.55 1861.06Z" fill="#AF4E15"/>
<path d="M1474.23 1802.83L1536.94 1807.34L1598.49 1810.64L1603.3 1814.76L1601.36 1826.29L1560.04 1823.92L1554.87 1833.81L1547.91 1837.98L1544.94 1851.36H1536.48L1532.58 1859.17L1479.55 1858.18L1474.23 1802.83Z" fill="#F9BE8F"/>
<path d="M1560.04 1823.92L1514.75 1820.05L1557.12 1826.47L1554.87 1833.81L1560.04 1823.92Z" fill="#390D02"/>
<path d="M1548.58 1837.57L1507.08 1833.81L1505.51 1823.9L1503.95 1834.85L1548.58 1837.57Z" fill="#390D02"/>
<path d="M1545.2 1850.21L1502.56 1847.72L1504.98 1839.89L1499.95 1849.45L1536.48 1851.36H1544.94L1545.2 1850.21Z" fill="#390D02"/>
<path fill-rule="evenodd" clip-rule="evenodd" d="M1508.28 1832.33C1508.2 1832.22 1508.18 1832.08 1508.21 1831.93L1510.82 1822.64C1510.89 1822.44 1511.11 1822.3 1511.34 1822.35L1526.36 1825.58C1526.49 1825.62 1526.59 1825.69 1526.65 1825.8C1526.71 1825.92 1526.72 1826.04 1526.67 1826.16L1524.47 1831.69C1524.39 1831.87 1524.26 1831.96 1524.08 1831.97L1508.64 1832.48C1508.64 1832.48 1508.63 1832.48 1508.62 1832.48C1508.48 1832.48 1508.37 1832.43 1508.28 1832.33ZM1525.67 1826.32L1511.56 1823.28L1509.21 1831.61L1523.77 1831.11L1525.67 1826.32Z" fill="white"/>
<path fill-rule="evenodd" clip-rule="evenodd" d="M1505.74 1846.93C1505.65 1846.82 1505.61 1846.71 1505.62 1846.58L1506.68 1837.52C1506.7 1837.4 1506.77 1837.3 1506.87 1837.22C1506.97 1837.16 1507.08 1837.13 1507.2 1837.16L1522.65 1840.25C1522.86 1840.3 1523.01 1840.47 1523.01 1840.68V1846.63C1523.01 1846.88 1522.81 1847.06 1522.57 1847.06H1506.05C1505.92 1847.06 1505.82 1847.02 1505.74 1846.93ZM1522.14 1841.04L1507.49 1838.1L1506.54 1846.21H1522.14V1841.04Z" fill="white"/>
<path d="M1495.43 1858.48V1850.26L1492.63 1858.43L1495.43 1858.48Z" fill="#390D02"/>
<path fill-rule="evenodd" clip-rule="evenodd" d="M1499.3 1858C1499.21 1857.92 1499.15 1857.83 1499.13 1857.71L1498.18 1850.31C1498.16 1850.17 1498.2 1850.05 1498.3 1849.95C1498.39 1849.86 1498.51 1849.82 1498.64 1849.83L1508.67 1850.93C1508.9 1850.96 1509.05 1851.15 1509.05 1851.36V1856.42C1509.05 1856.65 1508.9 1856.84 1508.67 1856.85L1499.62 1858.09C1499.6 1858.09 1499.58 1858.09 1499.55 1858.09C1499.46 1858.09 1499.38 1858.06 1499.3 1858ZM1508.19 1851.75L1499.11 1850.76L1499.93 1857.16L1508.19 1856.05V1851.75Z" fill="white"/>
<path d="M1474.23 1802.83L1508.62 1791.96L1517.45 1795.87L1495.85 1842.1L1480.08 1839.89L1488.8 1811.36L1474.23 1802.83Z" fill="#F9BE8F"/>
<path d="M1495.85 1842.1L1478.11 1843.2L1485.56 1809.47L1480.66 1806.6L1489.68 1809.63L1480.29 1841.02L1495.85 1842.1Z" fill="#390D02"/>
<path fill-rule="evenodd" clip-rule="evenodd" d="M1495.4 1840.93L1487.71 1840.32C1487.57 1840.3 1487.46 1840.25 1487.38 1840.14C1487.31 1840.03 1487.29 1839.9 1487.33 1839.77L1491.59 1824.79C1491.66 1824.58 1491.84 1824.45 1492.05 1824.48L1501.15 1825.41C1501.29 1825.42 1501.4 1825.49 1501.48 1825.62C1501.55 1825.74 1501.56 1825.87 1501.51 1825.99L1495.83 1840.66C1495.75 1840.84 1495.62 1840.93 1495.43 1840.93C1495.42 1840.93 1495.41 1840.93 1495.4 1840.93ZM1492.33 1825.37L1488.31 1839.51L1495.14 1840.04L1500.5 1826.22L1492.33 1825.37Z" fill="white"/>
<path d="M1517.45 1805.94L1502.94 1826.92L1512.9 1805.61L1517.45 1805.94Z" fill="#390D02"/>
<path d="M597.86 2098.03C597.86 2098.03 599.543 2115.96 602.755 2143.95C607.477 2185.15 615.514 2248.14 626.35 2307.93C636.894 2365.94 650.066 2420.91 665.436 2450.04L670.158 2558.31C670.158 2558.31 652.865 2663.34 646.099 2672.61C644.227 2675.16 640.552 2678.59 637.186 2689.41C628.909 2716.1 622.435 2787.81 649.138 3002.5C650.89 3016.68 652.808 3031.49 654.891 3046.93C636.843 3078.48 625.148 3090.21 626.934 3094.69C628.737 3099.21 706.255 3080.28 706.255 3080.28C706.255 3080.28 722.484 2868.47 744.104 2779.26C765.759 2690.01 780.167 2537.69 780.167 2537.69C780.167 2537.69 792.772 2535.88 798.216 2528.67C803.608 2521.46 798.216 2470.08 798.216 2470.08L846.678 2145.82L850.645 2119.44L853.736 2098.61C853.736 2098.61 854.045 2104.26 854.629 2114.22C858.407 2179.96 874.068 2433.36 892.838 2482.7C888.322 2495.34 882.947 2518.75 892.838 2514.26C891.945 2527.76 837.868 2754 832.459 2779.26C836.065 2790.52 843.724 2800.64 849.838 2809.43C854.457 2816.06 858.201 2821.97 858.596 2827C859.489 2838.74 882.019 3041.54 879.341 3084.8C880.703 3085.55 882.197 3086.31 883.823 3087.06C894.762 3092.08 910.647 3096.63 921.053 3099.33C927.321 3100.97 931.615 3101.92 931.615 3101.92C931.615 3101.92 946.727 2788.65 1011.73 2530.78C1024.97 2525.27 1030.46 2527.73 1030.46 2522.09C1030.46 2516.44 1015.04 2482.31 1015.04 2482.31C1015.04 2482.31 1092.75 2189.87 1025.36 1951.25C1025.3 1950.99 1025.24 1950.73 1025.16 1950.46C1023.67 1945.17 1022.1 1939.91 1020.45 1934.68C1019.24 1934.81 1017.94 1934.93 1016.55 1935.06C1015.9 1935.14 1015.22 1935.22 1014.53 1935.3C1014.26 1935.31 1013.99 1935.34 1013.72 1935.38C1012.74 1935.48 1011.74 1935.57 1010.7 1935.68C1008.1 1935.95 1005.31 1936.24 1002.35 1936.55C1000.79 1936.7 999.195 1936.87 997.558 1937.07C986.739 1938.18 974.117 1939.51 960.688 1940.98C912.45 1946.32 846.849 1923.31 825.349 1928.46C791.982 1936.47 712.97 1888.5 663.22 1873.42L613.35 1984.21L603.424 2057.16L597.86 2098.03Z" fill="#AF4E15"/>
<path d="M991.394 2541.98C991.531 2541.99 991.663 2541.96 991.788 2541.89L1012.05 2531.59C1014.06 2531.08 1028.13 2527.33 1030.46 2525.17C1032.28 2523.47 1029.84 2514.28 1011.93 2472.29C1011.74 2471.85 1011.25 2471.64 1010.8 2471.83C1010.35 2472.02 1010.15 2472.53 1010.34 2472.98C1015.4 2484.81 1030.77 2520.87 1029.23 2523.95C1027.73 2525.32 1017.56 2528.36 1011.52 2529.94L1011.35 2530.01L990.998 2540.35C990.569 2540.57 990.397 2541.09 990.621 2541.52C990.775 2541.81 991.084 2541.98 991.394 2541.98Z" fill="#622602"/>
<path d="M686.18 2069.57C686.375 2069.57 686.552 2069.51 686.713 2069.38L770.963 2002.44C771.34 2002.15 771.392 2001.6 771.1 2001.24C770.808 2000.86 770.259 2000.8 769.881 2001.09L685.631 2068.03C685.253 2068.32 685.201 2068.87 685.493 2069.23C685.677 2069.45 685.906 2069.56 686.18 2069.57Z" fill="#622602"/>
<path d="M847.588 2099.49H875.923L887.034 1990.84C887.085 1990.35 886.725 1989.93 886.261 1989.89C885.797 1989.82 885.351 1990.18 885.299 1990.66L874.36 2097.75H847.588C847.107 2097.75 846.712 2098.15 846.712 2098.61C846.712 2099.09 847.107 2099.49 847.588 2099.49Z" fill="#622602"/>
<path d="M1027.9 2060.11C1028.05 2060.11 1028.19 2060.07 1028.33 2059.99C1028.74 2059.75 1028.88 2059.22 1028.64 2058.81L977.466 1972.98C977.208 1972.56 976.676 1972.44 976.264 1972.68C975.852 1972.92 975.732 1973.46 975.972 1973.87L1027.15 2059.7C1027.32 2059.97 1027.59 2060.11 1027.9 2060.11Z" fill="#622602"/>
<path d="M670.879 3088.42V3113.49H702.529L700.485 3081.69L670.879 3088.42Z" fill="#F9BE8F"/>
<path d="M662.413 3113.49H721.745L708.934 3141.14L731.516 3212.61C731.516 3212.61 734.212 3232.5 717.022 3234.87C699.832 3237.22 651.954 3251.05 635.108 3220.03C648.245 3198.12 669.574 3154.62 670.879 3147.89C669.831 3140.8 662.413 3113.49 662.413 3113.49Z" fill="#333333"/>
<path d="M921.07 3099.34L919.456 3127.73L883.822 3114.97V3087.06C894.779 3092.1 910.663 3096.65 921.07 3099.34Z" fill="#F9BE8F"/>
<path d="M930.584 3131.71L875.305 3111.91V3158.66L858.218 3167.28C858.218 3167.28 844.187 3203.96 846.42 3218.95C885.66 3218.95 1062.68 3218.95 1062.68 3218.95C1062.68 3218.95 1049.92 3195.17 929.674 3165.44C930.309 3151 930.584 3131.71 930.584 3131.71Z" fill="#333333"/>
<path d="M690.508 2498.41C690.645 2498.41 690.783 2498.38 690.92 2498.33C691.332 2498.1 691.504 2497.57 691.281 2497.14L666.191 2449.64C638.062 2397.35 622.744 2282.29 622.589 2281.14C622.521 2280.66 622.091 2280.32 621.61 2280.4C621.147 2280.46 620.803 2280.9 620.872 2281.37C621.027 2282.53 636.396 2397.88 664.663 2450.47L689.735 2497.95C689.89 2498.26 690.199 2498.41 690.508 2498.41Z" fill="#622602"/>
<path d="M755.198 2541.98C755.232 2541.98 755.272 2541.98 755.318 2541.98L780.287 2538.56C780.768 2538.44 789.131 2536.07 796.687 2531.52L796.876 2531.37C808.537 2518.75 793.82 2435.11 793.184 2431.56C793.098 2431.08 792.652 2430.77 792.188 2430.86C791.707 2430.94 791.398 2431.39 791.484 2431.85C791.621 2432.71 806.613 2517.78 795.691 2530.11C788.359 2534.48 780.03 2536.85 779.944 2536.86L755.078 2540.26C754.597 2540.33 754.271 2540.76 754.339 2541.24C754.391 2541.67 754.769 2541.98 755.198 2541.98Z" fill="#622602"/>
<path d="M879.684 2856.52C879.844 2856.52 879.999 2856.47 880.147 2856.38C880.542 2856.12 880.663 2855.57 880.405 2855.18L855.006 2815.66C841.199 2794.2 834.416 2781.16 833.369 2779.14L852.722 2695.87C852.826 2695.4 852.534 2694.94 852.07 2694.84C851.606 2694.72 851.143 2695.01 851.022 2695.49L831.548 2779.36L831.686 2779.64C831.754 2779.77 838.503 2793.22 853.547 2816.61L878.945 2856.12C879.117 2856.38 879.392 2856.52 879.684 2856.52Z" fill="#622602"/>
<path opacity="0.25" d="M846.677 2145.82C846.506 2139.53 846.729 2133.46 847.897 2127.99C848.675 2124.46 849.591 2121.61 850.644 2119.44L846.677 2145.82Z" fill="#622602"/>
<path opacity="0.1" d="M892.684 2566.06C888.7 2605.36 884.716 2644.66 880.731 2683.97C876.404 2726.98 870.823 2772.73 849.838 2809.43C843.724 2800.64 836.065 2790.52 832.441 2779.24C837.868 2754 891.928 2527.78 892.838 2514.25C882.947 2518.75 888.322 2495.32 892.838 2482.7C874.068 2433.36 858.407 2179.94 854.612 2114.22C865.928 2106.39 884.063 2140.32 888.665 2151.66C900.394 2180.39 904.653 2211.82 906.817 2242.57C914.459 2350.38 903.571 2458.54 892.684 2566.06Z" fill="#622602"/>
<path opacity="0.1" d="M696.518 2967.52C695.625 2973.45 689.941 2977.16 685.459 2981.11C680.977 2985.07 677.181 2991.89 680.736 2996.68C682.368 2998.93 685.167 2999.98 687.502 3001.47C689.838 3003 691.984 3005.72 691.091 3008.38C689.855 3012.04 684.634 3011.8 680.856 3010.8C670.289 3008.05 659.717 3005.29 649.138 3002.51C622.434 2787.81 628.891 2716.1 637.186 2689.41C642.492 2694.61 646.751 2702.43 650.409 2710.46C661.342 2734.35 672.276 2758.23 683.209 2782.13C685.115 2786.26 687.039 2790.9 685.665 2795.26C683.295 2802.82 672.115 2803.99 665.779 2799.23C659.459 2794.47 656.866 2786.37 654.616 2778.76C649.739 2798.05 655.887 2818.24 662.602 2836.98C669.299 2855.71 676.752 2875.12 674.485 2894.87C673.558 2903.07 670.931 2911.04 669.986 2919.29C669.059 2927.49 670.038 2936.49 675.396 2942.81C679.088 2947.12 684.377 2949.7 688.893 2953.18C693.393 2956.65 697.377 2961.91 696.518 2967.52Z" fill="#622602"/>
<path d="M657.982 3066.8C658.028 3066.8 658.068 3066.79 658.102 3066.78C658.566 3066.73 658.909 3066.3 658.858 3065.82L641.118 2924.81C641.05 2924.33 640.638 2923.99 640.14 2924.06C639.676 2924.13 639.332 2924.56 639.401 2925.04L657.123 3066.04C657.192 3066.47 657.553 3066.8 657.982 3066.8Z" fill="#622602"/>
<path d="M1091.1 1329.05C1079.68 1327.07 1069.34 1324.84 1060.02 1322.47C999.258 1306.98 981.416 1285.2 981.416 1285.2C981.416 1285.2 972.623 1233.05 970.751 1220.7C959.555 1216.1 952.754 1209.9 949.148 1203.07C943.172 1191.61 946.005 1178.35 951.947 1167.55C952.027 1167.36 952.136 1167.17 952.273 1166.99C952.468 1166.58 952.697 1166.19 952.96 1165.8C953.424 1164.94 953.956 1164.13 954.489 1163.33C954.569 1163.17 954.672 1163.02 954.798 1162.9C954.924 1162.68 955.05 1162.47 955.176 1162.28C955.382 1161.99 955.582 1161.72 955.777 1161.46C956.097 1161 956.423 1160.55 956.755 1160.12C957.774 1158.78 958.828 1157.52 959.915 1156.36C962.732 1153.23 965.685 1150.72 968.433 1149.04C968.719 1148.87 969.011 1148.71 969.309 1148.56C970.03 1148.13 970.746 1147.79 971.455 1147.51C971.719 1147.42 971.971 1147.33 972.211 1147.25C972.898 1147.01 973.551 1146.86 974.169 1146.79C974.444 1146.76 974.701 1146.74 974.942 1146.74C975.01 1146.74 975.067 1146.74 975.113 1146.74C975.296 1146.74 975.468 1146.75 975.629 1146.77C975.949 1146.8 976.252 1146.85 976.539 1146.93C990.535 1150.81 989.332 1163.93 989.332 1163.93L991.015 1159.15C991.015 1159.15 1038.86 1157.28 1109.8 1117.44C1119.54 1129.02 1128.66 1138.22 1139.22 1145.31C1138.44 1148.34 1136.86 1154.5 1134.7 1162.88C1123.74 1205.57 1098.12 1304.93 1091.1 1329.05Z" fill="#F9BE8F"/>
<path d="M1160.25 1155.86C1154.72 1153.88 1149.68 1151.55 1144.92 1148.85C1142.96 1147.74 1141.06 1146.56 1139.22 1145.31C1128.66 1138.22 1119.54 1129.02 1109.8 1117.44C1038.86 1157.28 991.016 1159.15 991.016 1159.15L989.333 1163.93C989.333 1163.93 990.535 1150.81 976.539 1146.93C976.253 1146.85 975.949 1146.8 975.629 1146.77C975.469 1146.75 975.297 1146.74 975.114 1146.74C975.068 1146.74 975.011 1146.74 974.942 1146.74C974.701 1146.74 974.444 1146.76 974.169 1146.79C973.551 1146.86 972.898 1147.01 972.211 1147.25C971.971 1147.33 971.719 1147.42 971.456 1147.51C970.746 1147.79 970.03 1148.14 969.309 1148.56C969.023 1148.7 968.731 1148.86 968.433 1149.04C965.686 1150.72 962.732 1153.23 959.916 1156.36C958.817 1157.52 957.763 1158.78 956.756 1160.12C956.412 1160.55 956.086 1161 955.777 1161.46C955.582 1161.72 955.382 1161.99 955.176 1162.28C955.05 1162.47 954.924 1162.68 954.798 1162.9C954.672 1163.02 954.569 1163.17 954.489 1163.33C953.957 1164.13 953.424 1164.94 952.961 1165.8C952.697 1166.19 952.468 1166.58 952.274 1166.99C952.136 1167.17 952.028 1167.36 951.947 1167.55C935.41 1165.82 922.427 1153.92 922.427 1153.92C921.431 1144.28 934.826 1131.28 942.983 1118.06C941.094 1114.06 939.789 1109.8 938.896 1105.52C935.359 1088.75 938.123 1071.71 938.123 1069.44C938.072 1066.59 974.598 1046.55 988.062 1037.66C1001.54 1028.74 1134.19 1008.87 1134.19 1008.87C1134.19 1008.87 1129.91 1027.56 1114.73 1036.99C1138.05 1032.87 1156.22 1038.45 1167.98 1047.67C1175.66 1053.68 1180.6 1061.25 1182.42 1068.69C1162.76 1095.44 1159.86 1135.37 1160.25 1155.86Z" fill="#CC571D"/>
<path d="M1071.95 1262.02C1093.19 1231.02 1097.61 1170.04 1097.64 1169.42L1095.91 1169.3C1095.87 1169.92 1091.49 1230.44 1070.53 1261.04L1071.95 1262.02Z" fill="#390D02"/>
<path d="M1040.22 1206.1L1049.45 1197.04L1051.27 1205.37L1052.96 1205.01L1050.47 1193.6L1042.71 1201.23L1044.08 1192.16L1027.95 1197.11L1031.15 1185.57L1014.52 1191.2L1015.07 1192.83L1028.59 1188.26L1025.43 1199.7L1041.95 1194.63L1040.22 1206.1Z" fill="#390D02"/>
<path d="M1110.56 1220.91L1114.92 1217.82L1113.92 1216.41L1111.88 1217.85L1111.02 1211.77L1106.12 1216.48L1104.34 1213.13L1100.11 1214.71L1100.72 1216.34L1103.53 1215.29L1105.68 1219.33L1109.77 1215.38L1110.56 1220.91Z" fill="#390D02"/>
<path d="M968.828 1202.67L980.78 1186.54L968.278 1183.09L967.094 1187.35L968.759 1187.82L969.481 1185.22L977.878 1187.54L968.278 1200.51L955.777 1194.74L969.944 1167.83L977.346 1169.87L977.809 1168.2L969.068 1165.78L953.39 1195.54L968.828 1202.67Z" fill="#390D02"/>
<path d="M1060 1322.47L1054.07 1343.81L1029.07 1349.07L1012.36 1409.38L994.158 1334.82L951.054 1300.18L959.52 1266.11L970.769 1220.72C972.623 1233.07 981.416 1285.2 981.416 1285.2C981.416 1285.2 999.258 1306.98 1060 1322.47Z" fill="#F9BE8F"/>
<path d="M959.52 1266.11L941.455 1271.86L935.599 1270.23L959.744 1224.65L926.703 1242.2L924.179 1235.2L949.165 1203.07C952.754 1209.92 959.538 1216.12 970.769 1220.72L959.52 1266.11Z" fill="#AF4E15"/>
<path d="M994.158 1334.82L974.203 1400.48L970.408 1413.02L881.126 1324.7L943.618 1294.17L951.054 1300.18L994.158 1334.82Z" fill="#FCCA6C"/>
<path d="M1084.56 1377.11L1082.46 1379.64L1046.19 1423.07L1039.79 1395.38L1029.07 1349.07L1054.07 1343.81L1069.39 1340.6L1084.56 1377.11Z" fill="#FCCA6C"/>
<path d="M1030.55 1970.85C1017.7 1968.65 997.627 1961.95 973.087 1957.97C925.141 1950.22 866.804 1941.41 844.737 1940.67C810.426 1939.47 707.148 1901.23 663.237 1873.42C655.819 1868.74 650.1 1864.36 646.683 1860.49C649.637 1851.19 651.783 1842.03 651.783 1842.03L685.013 1841.52C685.013 1841.52 685.133 1841.3 685.373 1840.86C686.696 1838.22 691.847 1827.88 699.146 1812.55C700.714 1809.27 702.38 1805.77 704.143 1802.04C707.578 1794.72 711.339 1786.62 715.271 1777.91C732.633 1739.65 753.584 1690.09 766.996 1646.81C767.854 1644.09 768.673 1641.39 769.452 1638.72C771.839 1630.63 773.916 1622.84 775.617 1615.42C776.052 1613.58 776.464 1611.76 776.853 1609.98L776.87 1609.94C780.081 1595.76 782.726 1583.19 784.907 1572.09C784.93 1572.04 784.947 1571.95 784.959 1571.83C784.981 1571.7 785.016 1571.53 785.062 1571.32C785.096 1571.1 785.13 1570.9 785.165 1570.7C788.273 1554.87 790.42 1542.14 791.896 1532.08C791.908 1532.03 791.914 1531.99 791.914 1531.94C792.051 1530.98 792.188 1530.03 792.326 1529.09C792.807 1525.68 793.219 1522.61 793.562 1519.87C795.279 1505.72 795.245 1499.93 795.245 1499.93L754.065 1375.89V1375.86L747.59 1367.24L725.97 1338.54C725.958 1338.52 725.947 1338.51 725.936 1338.52L732.942 1337.89L856.707 1326.86L881.127 1324.68L970.391 1413.02L974.221 1400.48L994.141 1334.82L1012.38 1409.36L1029.09 1349.05L1039.8 1395.38L1046.19 1423.05L1082.44 1379.64L1105.32 1402.92L1156.15 1454.68L1152.22 1488.17L1150.55 1502.34L1148.8 1517.21C1146.28 1526.34 1125.75 1558.03 1109.7 1585.76C1106.18 1591.84 1102.85 1597.75 1099.98 1603.16C1095.1 1612.45 1091.55 1620.35 1090.48 1625.47C1089.79 1628.87 1087.72 1636.4 1084.76 1646.9C1083.4 1651.67 1081.91 1657.01 1080.28 1662.9C1079.06 1667.3 1077.77 1671.96 1076.42 1676.88C1071.3 1695.51 1065.39 1717.55 1059.78 1740.58C1058.48 1745.86 1057.22 1751.19 1055.98 1756.56C1048.89 1787.11 1042.71 1818.42 1039.82 1845C1039.52 1847.83 1039.27 1850.59 1039.05 1853.28C1039 1853.35 1039 1853.44 1039.03 1853.56C1038.93 1854.64 1038.84 1855.71 1038.77 1856.77C1037.59 1872.98 1037.95 1886.87 1040.49 1896.93C1037.5 1902.82 1033.93 1907.22 1031.44 1909.85C1029.69 1911.74 1028.49 1912.73 1028.49 1912.73L1029.35 1940.45L1029.57 1947.51L1030.55 1970.85Z" fill="#FE7568"/>
<path d="M1105.33 1402.94C1105.33 1402.94 1088.25 1435.43 1010.47 1439.17C1006.52 1438.3 1002.66 1437.34 998.88 1436.29H998.846C900.875 1409.24 856.724 1326.86 856.724 1326.86L868.126 1325.85L881.143 1324.7L970.408 1413.02L974.22 1400.48L994.158 1334.82L1012.38 1409.38L1029.09 1349.07L1039.8 1395.38L1046.21 1423.07L1082.46 1379.64L1105.33 1402.94Z" fill="#FDD589"/>
<path opacity="0.25" d="M1038.77 1856.77C954.644 1836.57 861.876 1830.47 776.252 1841.72C747.711 1845.47 717.298 1851.12 689.117 1842.26C687.812 1841.85 686.564 1841.39 685.374 1840.86C686.696 1838.22 691.848 1827.88 699.146 1812.55C700.715 1809.27 702.38 1805.77 704.143 1802.04C707.578 1794.72 711.339 1786.62 715.271 1777.91L984.525 1827.25L999.396 1832.02L1022.05 1839.3L1039.82 1845C1039.52 1847.83 1039.27 1850.59 1039.05 1853.28C1039 1853.35 1039 1853.44 1039.03 1853.56C1038.93 1854.64 1038.84 1855.71 1038.77 1856.77Z" fill="#B14237"/>
<path d="M1007.62 1437.17C1007.93 1437.17 1008.24 1436.99 1008.39 1436.68L1012.89 1427.29C1012.95 1427.18 1012.98 1427.06 1012.98 1426.93L1013.19 1412.45C1013.2 1411.99 1012.81 1411.6 1012.33 1411.58C1011.85 1411.58 1011.47 1411.96 1011.45 1412.44L1011.26 1426.71L1006.83 1435.93C1006.63 1436.36 1006.81 1436.87 1007.24 1437.08C1007.36 1437.14 1007.48 1437.17 1007.62 1437.17Z" fill="white"/>
<path d="M776.87 1609.94L776.853 1609.98L760.023 1647.4L631.468 1567.39C631.468 1567.39 631.914 1535.41 635.623 1516.52C667.153 1466.36 687.915 1366.55 687.915 1366.55L712.42 1348.48L725.935 1338.52C725.947 1338.51 725.958 1338.52 725.97 1338.54L754.064 1375.86L795.245 1499.93C795.245 1499.94 795.239 1500.09 795.228 1500.38C795.228 1500.45 795.228 1500.52 795.228 1500.6C795.239 1500.72 795.239 1500.84 795.228 1500.96C795.216 1501.17 795.205 1501.42 795.193 1501.72C795.205 1501.83 795.199 1501.95 795.176 1502.06C795.188 1502.21 795.182 1502.36 795.159 1502.53C795.056 1504.96 794.764 1509.26 794.043 1515.75C793.963 1516.5 793.871 1517.29 793.768 1518.1C793.745 1518.32 793.717 1518.55 793.682 1518.81C793.614 1519.35 793.545 1519.9 793.476 1520.45C793.144 1523.25 792.726 1526.37 792.223 1529.83C792.119 1530.53 792.016 1531.23 791.913 1531.94C791.913 1531.99 791.908 1532.03 791.896 1532.08C790.419 1542.14 788.273 1554.87 785.164 1570.7C785.142 1570.88 785.107 1571.06 785.061 1571.23C785.073 1571.27 785.073 1571.3 785.061 1571.32C785.016 1571.53 784.981 1571.7 784.958 1571.83L784.907 1572.06V1572.09C782.726 1583.19 780.081 1595.76 776.87 1609.94Z" fill="#FDD589"/>
<path d="M776.853 1609.99L760.006 1647.41L631.485 1567.4C631.485 1567.4 631.931 1535.41 635.623 1516.54L711.682 1581.69L776.853 1609.99Z" fill="#FEEAC4"/>
<path d="M1168.98 1670.29C1149.71 1664.95 1084.78 1646.95 1084.78 1646.95L1084.76 1646.9C1087.72 1636.4 1089.79 1628.87 1090.48 1625.47C1091.06 1622.58 1092.46 1618.84 1094.45 1614.44C1107.34 1585.69 1145.3 1529.86 1148.8 1517.21L1156.15 1454.68C1156.15 1454.68 1159.98 1464.37 1165.27 1476.16C1165.28 1476.2 1165.29 1476.22 1165.29 1476.22C1171.86 1490.95 1180.69 1508.9 1187.08 1515.23C1191.34 1531.65 1185.81 1610.46 1168.98 1670.29Z" fill="#FDD589"/>
<path d="M1168.98 1670.29L1159.93 1702.97L1146.03 1700.63L1132.86 1698.42L1076.43 1676.88C1077.77 1671.97 1079.05 1667.31 1080.28 1662.9C1081.92 1657.02 1083.41 1651.69 1084.76 1646.91V1646.95C1084.76 1646.95 1149.71 1664.95 1168.98 1670.29Z" fill="#FEEAC4"/>
<path d="M1060.02 1322.47L1055.16 1339.97L967.952 1297.03L970.751 1220.7C972.623 1233.05 981.416 1285.2 981.416 1285.2C981.416 1285.2 999.258 1306.98 1060.02 1322.47Z" fill="#390D02"/>
<g opacity="0.25">
<path d="M970.408 1413.02L990.586 1379.65L1012.36 1409.38L994.158 1334.81L970.408 1413.02Z" fill="#B08F4E"/>
</g>
<g opacity="0.25">
<path d="M1012.36 1409.38L1024.31 1393.25L1046.19 1423.07L1029.07 1349.07L1012.36 1409.38Z" fill="#B08F4E"/>
</g>
<path opacity="0.25" d="M994.158 1334.81L1021.02 1378.12L1012.36 1409.38L994.158 1334.81Z" fill="#390D02"/>
<g opacity="0.25">
<path d="M784.907 1572.09V1572.06L788.084 1502.9L750.167 1395.01L731.448 1349.34L712.421 1348.48L725.936 1338.52C725.947 1338.51 725.959 1338.52 725.97 1338.54L754.065 1375.86L795.245 1499.93C795.245 1499.94 795.24 1500.09 795.228 1500.38C795.228 1500.45 795.228 1500.52 795.228 1500.6C795.24 1500.72 795.24 1500.84 795.228 1500.96C795.217 1501.17 795.205 1501.42 795.194 1501.72C795.205 1501.83 795.199 1501.95 795.177 1502.06C795.188 1502.21 795.182 1502.36 795.159 1502.53C795.056 1504.96 794.764 1509.26 794.043 1515.75C793.963 1516.5 793.871 1517.29 793.768 1518.1C793.746 1518.32 793.717 1518.55 793.683 1518.81C793.614 1519.35 793.545 1519.9 793.477 1520.45C793.144 1523.25 792.727 1526.37 792.223 1529.83C792.12 1530.53 792.017 1531.23 791.914 1531.94C791.914 1531.99 791.908 1532.03 791.897 1532.08C788.651 1550.75 786.006 1565.96 785.165 1570.7C785.142 1570.9 785.108 1571.07 785.062 1571.23C785.073 1571.27 785.073 1571.3 785.062 1571.32C785.016 1571.53 784.982 1571.7 784.959 1571.83C784.936 1571.93 784.919 1572.01 784.907 1572.09Z" fill="#B08F4E"/>
</g>
<g opacity="0.25">
<path d="M1165.29 1476.22L1153.28 1519.51L1094.45 1614.44C1107.34 1585.69 1145.3 1529.86 1148.8 1517.21L1156.15 1454.68C1156.15 1454.68 1159.98 1464.37 1165.27 1476.16C1165.28 1476.2 1165.29 1476.22 1165.29 1476.22Z" fill="#B08F4E"/>
</g>
<path d="M1134.7 1162.88C1129.1 1155.46 1118.87 1142.79 1107.19 1131.78C1017.08 1171.23 991.016 1159.15 991.016 1159.15C991.016 1159.15 1038.86 1157.28 1109.8 1117.44C1119.54 1129.02 1128.66 1138.22 1139.22 1145.31C1138.44 1148.34 1136.86 1154.5 1134.7 1162.88Z" fill="#390D02"/>
<g opacity="0.25">
<path d="M1150.55 1502.34L754.064 1375.89V1375.86L747.59 1367.24L1152.22 1488.17L1150.55 1502.34Z" fill="#FFC8C3"/>
<path d="M1109.7 1585.76C1106.18 1591.84 1102.84 1597.75 1099.98 1603.16L792.325 1529.09C792.806 1525.68 793.218 1522.61 793.562 1519.87L1109.7 1585.76Z" fill="#FFC8C3"/>
<path d="M1055.98 1756.56L766.996 1646.81C767.854 1644.09 768.673 1641.39 769.451 1638.72L1059.78 1740.58C1058.48 1745.86 1057.22 1751.19 1055.98 1756.56Z" fill="#FFC8C3"/>
<path d="M1029.34 1940.45L699.146 1812.55C700.714 1809.27 702.38 1805.77 704.143 1802.04L1031.44 1909.85C1029.69 1911.74 1028.49 1912.73 1028.49 1912.73L1029.34 1940.45Z" fill="#FFC8C3"/>
</g>
<path opacity="0.25" d="M1167.98 1047.67C1163.05 1051.51 1157.2 1053.99 1150.89 1054.26C1139.92 1054.76 1129.69 1049.15 1120.16 1043.7C1111.79 1038.93 1103.42 1034.15 1095.05 1029.38C1097.54 1045.49 1098.93 1064.7 1086.5 1075.25C1078.29 1082.2 1066.39 1082.86 1055.81 1080.88C1045.23 1078.94 1035.13 1074.75 1024.49 1073.24C1005.29 1070.44 984.97 1076.91 970.923 1090.27C966.286 1094.65 962.234 1099.8 956.67 1102.9C951.054 1106 944.975 1106.64 938.896 1105.52C935.358 1088.75 938.123 1071.71 938.123 1069.44C938.071 1066.59 974.598 1046.55 988.062 1037.66C1001.54 1028.74 1134.19 1008.87 1134.19 1008.87C1134.19 1008.87 1129.91 1027.56 1114.73 1036.99C1138.05 1032.87 1156.22 1038.45 1167.98 1047.67Z" fill="white"/>
<path fill-rule="evenodd" clip-rule="evenodd" d="M944.872 1153.42C928.249 1151.67 915.404 1140.06 914.871 1139.56C914.711 1139.41 914.619 1139.23 914.596 1139.01C913.875 1132.06 920.109 1123.68 926.72 1114.8C929.571 1110.95 932.542 1106.97 935.015 1103C933.332 1099.34 932.01 1095.2 931.065 1090.7C928.111 1076.69 929.485 1062.73 930.086 1056.77C930.189 1055.67 930.275 1054.79 930.275 1054.45C930.241 1052.44 937.282 1047.94 959.95 1034.5C968.09 1029.67 975.783 1025.12 980.609 1021.93C994.089 1013.01 1121.65 993.831 1127.08 993.007C1127.37 992.973 1127.63 993.064 1127.83 993.282C1128.04 993.511 1128.11 993.774 1128.05 994.072C1127.88 994.793 1124.12 1010.66 1111.35 1020.55C1130.96 1017.89 1148.66 1021.89 1161.54 1031.97C1169.12 1037.91 1174.35 1045.56 1176.29 1053.47C1176.35 1053.74 1176.3 1053.98 1176.14 1054.19C1154.72 1083.34 1153.9 1127.88 1154.16 1140.83C1154.16 1141.14 1154.04 1141.39 1153.8 1141.57C1153.55 1141.73 1153.28 1141.76 1152.99 1141.67C1147.48 1139.7 1142.41 1137.4 1137.52 1134.6C1135.55 1133.49 1133.63 1132.3 1131.76 1131.03C1122.3 1124.69 1113.3 1116.19 1102.62 1103.55C1062.4 1126.05 1029.71 1136.31 1009.32 1140.95L1008.6 1141.14C1003.64 1142.39 995.292 1144.11 983.751 1146.22C983.522 1146.27 983.293 1146.31 983.064 1146.36C982.813 1146.41 982.572 1146.45 982.343 1146.48C967.695 1149.18 952.205 1151.74 945.817 1152.78C945.794 1152.84 945.771 1152.89 945.748 1152.94C945.593 1153.23 945.301 1153.42 944.975 1153.42C944.941 1153.42 944.906 1153.42 944.872 1153.42ZM945.147 1151.13C951.26 1150.14 967.077 1147.51 982.051 1144.76C982.28 1144.73 982.509 1144.69 982.738 1144.64C982.99 1144.6 983.231 1144.56 983.46 1144.52C994.931 1142.41 1003.24 1140.69 1008.19 1139.46L1008.93 1139.27C1029.31 1134.61 1062.06 1124.33 1102.4 1101.68C1102.76 1101.47 1103.22 1101.56 1103.48 1101.88C1114.4 1114.87 1123.14 1123.16 1132.73 1129.58C1134.56 1130.83 1136.44 1132 1138.38 1133.09C1142.82 1135.63 1147.43 1137.77 1152.41 1139.61C1152.23 1125.15 1153.64 1082.2 1174.51 1053.51C1172.58 1046.09 1167.62 1038.94 1160.48 1033.35C1147.19 1022.92 1128.52 1019.2 1107.91 1022.84C1107.5 1022.9 1107.09 1022.68 1106.95 1022.29C1106.79 1021.91 1106.95 1021.46 1107.29 1021.24C1119.74 1013.51 1124.76 999.224 1126.01 994.93C1112.15 997.025 994.021 1015.14 981.57 1023.39C976.711 1026.6 969 1031.17 960.843 1035.99C949.011 1043.01 932.817 1052.61 932.01 1054.43C931.998 1054.87 931.93 1055.71 931.804 1056.94C931.22 1062.83 929.863 1076.59 932.765 1090.34C933.71 1094.89 935.066 1099.03 936.784 1102.69C936.91 1102.96 936.892 1103.24 936.732 1103.51C934.173 1107.69 931.082 1111.83 928.111 1115.83C921.826 1124.28 915.884 1132.26 916.296 1138.5C918.134 1140.09 929.915 1149.88 944.494 1151.63C944.506 1151.61 944.517 1151.59 944.529 1151.58C944.666 1151.34 944.872 1151.19 945.147 1151.13Z" fill="white"/>
<path fill-rule="evenodd" clip-rule="evenodd" d="M1030.8 1087.32C1023.51 1086.44 1016.74 1084.76 1011.76 1082.63C1006.37 1080.31 1003.69 1077.74 1004 1075.18C1004.7 1069.51 1019.42 1068.19 1032.93 1069.84C1040.23 1070.73 1046.98 1072.4 1051.98 1074.54C1057.35 1076.86 1060.03 1079.42 1059.72 1081.98C1059.23 1086.17 1051.07 1087.99 1041.38 1087.99C1037.97 1087.99 1034.34 1087.77 1030.8 1087.32ZM1005.73 1075.4C1005.53 1077.03 1008.03 1079.15 1012.43 1081.03C1017.29 1083.11 1023.88 1084.73 1031.01 1085.6C1046.41 1087.47 1057.59 1085.09 1058.01 1081.77C1058.21 1080.14 1055.71 1078.03 1051.29 1076.14C1046.45 1074.06 1039.85 1072.43 1032.73 1071.57C1028.96 1071.11 1025.49 1070.89 1022.32 1070.9C1012.52 1070.9 1006.04 1072.88 1005.73 1075.4Z" fill="white"/>
<g opacity="0.25">
<path d="M998.846 1436.29C900.875 1409.24 856.724 1326.86 856.724 1326.86L868.126 1325.85C868.126 1325.85 920.675 1409.16 998.846 1436.29Z" fill="#B08F4E"/>
</g>
<path d="M776.853 1610.85C777.197 1610.85 777.506 1610.66 777.66 1610.34C787.174 1589.18 795.743 1503.66 796.104 1500.03C796.115 1499.91 796.104 1499.79 796.069 1499.67L754.889 1375.63C754.866 1375.54 754.826 1375.46 754.769 1375.38L727.567 1339.25L818.428 1331.14C818.909 1331.09 819.253 1330.68 819.218 1330.2C819.167 1329.71 818.755 1329.37 818.274 1329.41L725.867 1337.65C725.558 1337.68 725.283 1337.87 725.146 1338.16C725.025 1338.46 725.06 1338.78 725.249 1339.04L753.292 1376.3L794.369 1500.03C793.906 1504.57 785.268 1589.2 776.063 1609.63C775.874 1610.08 776.063 1610.58 776.51 1610.78C776.624 1610.83 776.739 1610.85 776.853 1610.85Z" fill="white"/>
<path d="M531.195 1949.12L598.272 2095.14L609.881 2120.46L877.142 1997.77L865.705 1972.82L860.347 1961.18L840.478 1917.9L835.137 1906.26V1906.24L815.251 1863L809.91 1851.37V1851.34L798.473 1826.39L715.992 1864.25L705.602 1869.03L646.408 1896.23L620.889 1907.94L531.195 1949.12Z" fill="#F2F2F2"/>
<path d="M797.374 1877.91C791.106 1880.79 783.687 1878.04 780.802 1871.78C777.935 1865.51 780.682 1858.09 786.95 1855.2C793.218 1852.34 800.637 1855.08 803.505 1861.35C806.39 1867.62 803.642 1875.04 797.374 1877.91Z" fill="#CCCCCC"/>
<path d="M790.282 1867.41C788.805 1864.2 790.213 1860.39 793.424 1858.91L816.745 1848.21C819.956 1846.74 823.769 1848.15 825.246 1851.37C826.723 1854.59 825.314 1858.4 822.086 1859.87L798.782 1870.57C795.554 1872.05 791.759 1870.64 790.282 1867.41Z" fill="#808080"/>
<path d="M822.584 1932.83C816.316 1935.69 808.897 1932.95 806.012 1926.68C803.144 1920.41 805.892 1912.99 812.16 1910.12C818.428 1907.24 825.847 1909.99 828.715 1916.25C831.6 1922.52 828.852 1929.94 822.584 1932.83Z" fill="#CCCCCC"/>
<path d="M815.492 1922.33C814.015 1919.12 815.423 1915.31 818.634 1913.83L841.955 1903.13C845.166 1901.66 848.979 1903.06 850.456 1906.28C851.932 1909.5 850.524 1913.3 847.296 1914.78L823.992 1925.49C820.781 1926.97 816.969 1925.54 815.492 1922.33Z" fill="#808080"/>
<path d="M847.793 1987.73C841.525 1990.61 834.107 1987.86 831.222 1981.6C828.354 1975.33 831.101 1967.91 837.369 1965.02C843.638 1962.16 851.056 1964.9 853.924 1971.17C856.809 1977.44 854.061 1984.86 847.793 1987.73Z" fill="#CCCCCC"/>
<path d="M840.702 1977.25C839.225 1974.02 840.633 1970.23 843.861 1968.75L867.165 1958.03C870.376 1956.56 874.189 1957.97 875.665 1961.19C877.142 1964.41 875.734 1968.22 872.523 1969.7L849.202 1980.39C845.991 1981.87 842.178 1980.46 840.702 1977.25Z" fill="#808080"/>
<path d="M746.045 1638.72L733.8 1674.94L704.177 1704.68L753.841 2027.71L699.146 2052.81L577.94 1697.64L597.86 1646.91L633.374 1568.59L746.045 1638.72Z" fill="#F9BE8F"/>
<path d="M699.163 2052.81L699.18 2079.46H721.23L731.242 2071.02L741.803 2068.7L743.915 2064.7L753.841 2062.07V2027.72L699.163 2052.81Z" fill="#F9BE8F"/>
<path d="M972.692 1525.09C968.478 1525.1 964.157 1524.65 959.726 1523.73C878.172 1506.75 872.505 1332.15 872.299 1324.73C872.265 1323.6 873.158 1322.67 874.274 1322.64C874.297 1322.64 874.32 1322.64 874.343 1322.64C875.442 1322.64 876.352 1323.52 876.369 1324.61C876.421 1326.42 882.156 1503.4 960.568 1519.75C1038.74 1536.03 1085.19 1385.8 1085.65 1384.29C1085.98 1383.21 1087.13 1382.59 1088.2 1382.92C1089.28 1383.24 1089.88 1384.39 1089.55 1385.48C1087.73 1391.47 1046.38 1525.09 972.692 1525.09Z" fill="#666666"/>
<path d="M1017.8 1601.3L904.138 1588.49L914.115 1499.97L1027.78 1512.78L1017.8 1601.3Z" fill="#FCCA6C"/>
<path d="M912.964 1581.45L921.156 1508.79L1018.96 1519.82L1010.76 1592.48L912.964 1581.45Z" fill="white"/>
<path d="M934.997 1518.29L928.094 1530.95L1007.26 1539.88L1006.37 1534.42L934.997 1518.29Z" fill="#666666"/>
<path d="M930.996 1538.88L931.219 1551.81L1005.41 1556.41L1005.87 1552.31L930.996 1538.88Z" fill="#666666"/>
<path d="M935.358 1566.37L934.722 1572.06L997.506 1579.13L1001.06 1566.82L935.358 1566.37Z" fill="#666666"/>
</g>
<defs>
<linearGradient id="paint0_linear_5_52" x1="3785.93" y1="3180.64" x2="1880.79" y2="-118.911" gradientUnits="userSpaceOnUse">
<stop stop-color="#F2E94D"/>
<stop offset="1" stop-color="#439545"/>
</linearGradient>
<linearGradient id="paint1_linear_5_52" x1="3468.42" y1="4018.13" x2="2486.67" y2="354.473" gradientUnits="userSpaceOnUse">
<stop stop-color="#439545"/>
<stop offset="1" stop-color="#F2E94D"/>
</linearGradient>
<linearGradient id="paint2_linear_5_52" x1="2481.42" y1="3970.56" x2="2481.42" y2="360.96" gradientUnits="userSpaceOnUse">
<stop stop-color="#F2E94D"/>
<stop offset="1" stop-color="#439545"/>
</linearGradient>
<clipPath id="clip0_5_52">
<rect width="5414" height="4512" fill="white"/>
</clipPath>
</defs>
</svg>
