<svg width="800" height="800" viewBox="0 0 800 800" fill="none" xmlns="http://www.w3.org/2000/svg">
<path d="M456.5 160C482.009 159.995 506.649 169.263 525.831 186.079C545.012 202.895 557.426 226.11 560.76 251.4C569.119 254.402 576.429 259.759 581.81 266.826C587.19 273.892 590.41 282.364 591.08 291.22L591.14 293.06H604.34C621.6 293.06 635.56 307.06 635.56 324.28V380H602.7V325.92H591.2V380H558.34V294.72C558.34 291.235 556.956 287.893 554.491 285.429C552.027 282.964 548.685 281.58 545.2 281.58H190.36C187.211 281.579 184.165 282.709 181.779 284.765C179.393 286.821 177.825 289.665 177.36 292.78L177.22 294.72L177.18 309.16L177.22 309.5V413C177.236 416.48 178.625 419.813 181.086 422.274C183.547 424.735 186.88 426.124 190.36 426.14H316.6L356.16 386.58C358.883 383.852 362.479 382.168 366.318 381.824C370.158 381.481 373.996 382.499 377.16 384.7L379.42 386.62L418.88 426.14H459.98V458.98H412.06C408.594 458.992 405.212 457.907 402.4 455.88L400.44 454.16L367.78 421.44H367.76L335.06 454.2C332.608 456.649 329.443 458.259 326.02 458.8L323.42 459H206.76L206.78 531.28C206.78 553.18 223.34 571.52 245.12 573.76L249.5 574L459.98 573.98V606.84H249.5C230.352 606.839 211.918 599.571 197.922 586.503C183.926 573.436 175.412 555.543 174.1 536.44L173.92 531.28V456C165.785 452.886 158.702 447.526 153.493 440.544C148.285 433.562 145.167 425.245 144.5 416.56L144.4 414.66H131.2C123.547 414.662 116.161 411.851 110.445 406.763C104.729 401.674 101.083 394.662 100.2 387.06L100 383.46V324.3C100 307.06 113.98 293.1 131.2 293.1H144.36C144.66 284.493 147.371 276.143 152.183 269.001C156.995 261.859 163.716 256.211 171.58 252.7L174.84 251.4C178.037 227.139 189.599 204.754 207.533 188.105C225.467 171.457 248.649 161.587 273.08 160.2L279.08 160.02H456.48L456.5 160ZM144.36 325.92H132.86V381.78H144.36V325.92ZM456.5 192.86H279.06C262.743 192.858 246.905 198.377 234.123 208.519C221.341 218.661 212.367 232.83 208.66 248.72H526.9C523.385 233.697 515.158 220.191 503.42 210.177C491.682 200.163 477.05 194.165 461.66 193.06L456.5 192.86Z" fill="#009DFF"/>
<path d="M628 355C647.52 355 663.4 370.66 664.88 390.44L665 393.44V606.56C665 626.74 650.02 643.36 630.9 644.88L628 645H472C452.48 645 436.6 629.34 435.12 609.56L435 606.56V393.44C435 373.26 449.98 356.64 469.1 355.12L472 355H628ZM626.54 394.72H473.44V605.26H626.54V394.72Z" fill="#FF7D7F"/>
<path d="M586.08 560C593.76 560 600 566.72 600 575C600 582.64 594.68 588.96 587.82 589.88L586.08 590H513.92C506.24 590 500 583.28 500 575C500 567.36 505.32 561.04 512.18 560.12L513.92 560H586.08Z" fill="#B72528"/>
</svg>
