<svg width="800" height="800" viewBox="0 0 800 800" fill="none" xmlns="http://www.w3.org/2000/svg">
<g clip-path="url(#clip0_4_33)">
<path d="M400 53.3328C385.294 53.3328 373.333 65.2922 373.333 80C373.333 94.7062 385.292 106.667 400 106.667C414.706 106.667 426.667 94.7078 426.667 80C426.667 65.2937 414.706 53.3328 400 53.3328Z" fill="#009DFF"/>
<path d="M560 573.333C560 565.973 554.041 560 546.667 560H413.334C405.961 560 400.002 565.973 400.002 573.333C400.002 580.692 405.961 586.666 413.334 586.666H546.667C554.041 586.667 560 580.694 560 573.333Z" fill="#009DFF"/>
<path d="M253.333 266.667C231.28 266.667 213.333 284.614 213.333 306.667C213.333 328.72 231.28 346.667 253.333 346.667H546.666C568.719 346.667 586.666 328.72 586.666 306.667C586.666 284.614 568.719 266.667 546.666 266.667H520C512.627 266.667 506.667 272.641 506.667 280C506.667 287.359 512.627 293.333 520 293.333H546.667C554.027 293.333 560 299.319 560 306.666C560 314.013 554.027 319.998 546.667 319.998H253.333C245.973 319.998 240 314.013 240 306.666C240 299.319 245.973 293.333 253.333 293.333H280C287.373 293.333 293.333 287.359 293.333 280C293.333 272.641 287.373 266.667 280 266.667H253.333Z" fill="#009DFF"/>
<path d="M413.333 640C405.959 640 400 645.973 400 653.333C400 660.692 405.959 666.666 413.333 666.666H466.666C474.039 666.666 479.998 660.692 479.998 653.333C479.998 645.973 474.039 640 466.666 640H413.333Z" fill="#009DFF"/>
<path d="M333.333 293.333H466.666C474.039 293.333 479.998 287.359 479.998 280V13.3328C479.998 5.97344 474.039 0 466.666 0H333.333C325.959 0 320 5.97344 320 13.3328V280C320 287.359 325.959 293.333 333.333 293.333ZM346.667 26.6672H453.334V266.667H346.667V26.6672Z" fill="#009DFF"/>
<path d="M693.333 573.333C693.333 565.973 687.373 560 680 560H600C592.627 560 586.667 565.973 586.667 573.333C586.667 580.692 592.627 586.666 600 586.666H680C687.373 586.667 693.333 580.694 693.333 573.333Z" fill="#009DFF"/>
<path d="M253.333 426.667H200C155.88 426.667 120 462.547 120 506.667V510.253C112.027 514.867 106.667 523.48 106.667 533.333V560C106.667 570.053 112.267 578.841 120.508 583.373C123.055 609 134.202 631.559 134.734 632.627C146.828 656.8 165.094 693.333 226.667 693.333C288.241 693.333 306.508 656.8 318.6 632.627C319.133 631.559 330.28 609 332.827 583.373C341.067 578.841 346.667 570.053 346.667 560V533.333C346.667 523.48 341.308 514.866 333.334 510.253V506.667C333.333 462.547 297.453 426.667 253.333 426.667ZM320 560C312.627 560 306.667 565.973 306.667 573.333C306.667 596.4 294.853 620.48 294.734 620.706C280.855 648.466 268.614 666.666 226.667 666.666C184.72 666.666 172.481 648.466 158.614 620.719C158.481 620.478 146.667 596.398 146.667 573.333C146.667 565.973 140.708 560 133.334 560V533.333C140.708 533.333 146.667 527.359 146.667 520V506.667C146.667 477.253 170.587 453.334 200 453.334H253.333C282.747 453.334 306.666 477.255 306.666 506.667V520C306.666 527.359 312.625 533.333 319.998 533.333V560H320Z" fill="#FF7D7F"/>
<path d="M733.333 213.333H506.667C499.294 213.333 493.334 219.306 493.334 226.666C493.334 234.025 499.294 239.998 506.667 239.998H733.334C755.388 239.998 773.334 257.945 773.334 279.998V733.331C773.334 755.384 755.388 773.331 733.334 773.331H66.6672C44.6141 773.331 26.6672 755.384 26.6672 733.331V280C26.6672 257.947 44.6141 240 66.6672 240H266.667C274.041 240 280 234.027 280 226.667C280 219.308 274.041 213.334 266.667 213.334H66.6672C29.9062 213.333 0 243.241 0 280V733.333C0 770.094 29.9062 800 66.6672 800H733.334C770.094 800 800 770.094 800 733.333V280C800 243.241 770.094 213.333 733.333 213.333Z" fill="#009DFF"/>
<path d="M266.667 533.333H253.334C245.961 533.333 240.002 539.306 240.002 546.666C240.002 554.025 245.961 559.998 253.334 559.998H266.667C274.041 559.998 280 554.025 280 546.666C280 539.306 274.041 533.333 266.667 533.333Z" fill="#B72528"/>
<path d="M600 453.333H413.333C405.959 453.333 400 459.306 400 466.666C400 474.025 405.959 479.998 413.333 479.998H600C607.373 479.998 613.333 474.025 613.333 466.666C613.333 459.306 607.373 453.333 600 453.333Z" fill="#009DFF"/>
<path d="M520 666.667H653.333C660.706 666.667 666.666 660.694 666.666 653.334C666.666 645.975 660.706 640.002 653.333 640.002H520C512.627 640.002 506.667 645.975 506.667 653.334C506.667 660.694 512.627 666.667 520 666.667Z" fill="#009DFF"/>
<path d="M200 533.333H186.667C179.294 533.333 173.334 539.306 173.334 546.666C173.334 554.025 179.294 559.998 186.667 559.998H200C207.373 559.998 213.333 554.025 213.333 546.666C213.333 539.306 207.373 533.333 200 533.333Z" fill="#B72528"/>
</g>
<defs>
<clipPath id="clip0_4_33">
<rect width="800" height="800" fill="white"/>
</clipPath>
</defs>
</svg>
