<svg width="800" height="800" viewBox="0 0 800 800" fill="none" xmlns="http://www.w3.org/2000/svg">
<path d="M266.667 433.333H533.333C590.357 433.333 638.353 476.013 645.017 532.65L666.667 716.667M266.667 433.333C174.737 412.903 102.239 342.29 79.399 250.929L66.6667 200M266.667 433.333V600C266.667 662.853 266.667 694.28 286.193 713.807C305.719 733.333 337.147 733.333 400 733.333C462.853 733.333 494.28 733.333 513.807 713.807C533.333 694.28 533.333 662.853 533.333 600V566.667" stroke="#009DFF" stroke-width="50" stroke-linecap="round"/>
<path d="M400 333.333C473.638 333.333 533.333 273.638 533.333 200C533.333 126.362 473.638 66.6667 400 66.6667C326.362 66.6667 266.667 126.362 266.667 200C266.667 273.638 326.362 333.333 400 333.333Z" stroke="#FF7D7F" stroke-width="50"/>
</svg>
